<svg xmlns="http://www.w3.org/2000/svg" xmlns:xlink="http://www.w3.org/1999/xlink" width="1000" zoomAndPan="magnify" viewBox="0 0 750 749.999995" height="1000" preserveAspectRatio="xMidYMid meet" version="1.0"><defs><g/><clipPath id="48f85ac003"><path d="M 375 0 C 167.894531 0 0 167.894531 0 375 C 0 582.105469 167.894531 750 375 750 C 582.105469 750 750 582.105469 750 375 C 750 167.894531 582.105469 0 375 0 Z M 375 0 " clip-rule="nonzero"/></clipPath><clipPath id="08ec95fda2"><path d="M 0 0 L 750 0 L 750 750 L 0 750 Z M 0 0 " clip-rule="nonzero"/></clipPath><clipPath id="67e671cdc9"><path d="M 375 0 C 167.894531 0 0 167.894531 0 375 C 0 582.105469 167.894531 750 375 750 C 582.105469 750 750 582.105469 750 375 C 750 167.894531 582.105469 0 375 0 Z M 375 0 " clip-rule="nonzero"/></clipPath><clipPath id="dca700fd51"><rect x="0" width="750" y="0" height="750"/></clipPath><clipPath id="214501b870"><path d="M 0.960938 74 L 700.558594 74 L 700.558594 302.238281 L 0.960938 302.238281 Z M 0.960938 74 " clip-rule="nonzero"/></clipPath><clipPath id="a1a3f45981"><rect x="0" width="701" y="0" height="229"/></clipPath><clipPath id="4027499b49"><path d="M 309.828125 0.558594 L 616.363281 0.558594 L 616.363281 134.742188 L 309.828125 134.742188 Z M 309.828125 0.558594 " clip-rule="nonzero"/></clipPath><clipPath id="263d62d610"><rect x="0" width="701" y="0" height="303"/></clipPath></defs><g clip-path="url(#48f85ac003)"><g transform="matrix(1, 0, 0, 1, 0, -0.000000000000042435)"><g clip-path="url(#dca700fd51)"><g clip-path="url(#08ec95fda2)"><g clip-path="url(#67e671cdc9)"><rect x="-165" width="1080" fill="#0c0a09" height="1079.999992" y="-164.999999" fill-opacity="1"/></g></g></g></g></g><g transform="matrix(1, 0, 0, 1, 24, 226)"><g clip-path="url(#263d62d610)"><g clip-path="url(#214501b870)"><g transform="matrix(1, 0, 0, 1, -0.000000000000003553, 74)"><g clip-path="url(#a1a3f45981)"><g fill="#fff4e6" fill-opacity="1"><g transform="translate(3.68948, 183.116897)"><g><path d="M 47.484375 -27.328125 L 2.3125 -27.328125 C 1.226562 -27.328125 0.53125 -27.90625 0.21875 -29.0625 C -0.0820312 -30.226562 0.304688 -31.273438 1.390625 -32.203125 C 5.398438 -35.285156 7.984375 -38.253906 9.140625 -41.109375 C 10.304688 -43.972656 10.890625 -47.566406 10.890625 -51.890625 L 10.890625 -71.34375 C 10.890625 -75.664062 10.304688 -79.289062 9.140625 -82.21875 C 7.984375 -85.15625 5.398438 -88.171875 1.390625 -91.265625 C 0.304688 -92.191406 -0.0820312 -93.191406 0.21875 -94.265625 C 0.53125 -95.347656 1.226562 -95.890625 2.3125 -95.890625 C 7.875 -95.890625 12.703125 -96.660156 16.796875 -98.203125 C 20.890625 -99.753906 24.476562 -101.570312 27.5625 -103.65625 C 30.65625 -105.738281 33.394531 -107.664062 35.78125 -109.4375 C 38.175781 -111.21875 40.457031 -112.335938 42.625 -112.796875 C 45.09375 -113.265625 46.132812 -112.800781 45.75 -111.40625 C 45.363281 -110.019531 45.015625 -108.554688 44.703125 -107.015625 C 41.617188 -86.472656 40.613281 -69.832031 41.6875 -57.09375 C 42.769531 -44.351562 45.472656 -36.363281 49.796875 -33.125 C 51.035156 -32.195312 51.578125 -31 51.421875 -29.53125 C 51.265625 -28.0625 49.953125 -27.328125 47.484375 -27.328125 Z M 17.375 -111.40625 C 12.738281 -111.40625 9.109375 -113.066406 6.484375 -116.390625 C 3.859375 -119.710938 3.085938 -123.6875 4.171875 -128.3125 C 5.253906 -133.101562 7.800781 -137.117188 11.8125 -140.359375 C 15.820312 -143.609375 20.222656 -145.234375 25.015625 -145.234375 C 29.648438 -145.234375 33.28125 -143.609375 35.90625 -140.359375 C 38.53125 -137.117188 39.300781 -133.101562 38.21875 -128.3125 C 37.132812 -123.6875 34.582031 -119.710938 30.5625 -116.390625 C 26.550781 -113.066406 22.15625 -111.40625 17.375 -111.40625 Z M 17.375 -111.40625 "/></g></g></g><g fill="#fff4e6" fill-opacity="1"><g transform="translate(56.262994, 183.116897)"><g><path d="M 50.71875 -33.125 C 51.957031 -32.195312 52.5 -31 52.34375 -29.53125 C 52.1875 -28.0625 50.796875 -27.328125 48.171875 -27.328125 L 2.3125 -27.328125 C 1.226562 -27.328125 0.53125 -27.90625 0.21875 -29.0625 C -0.0820312 -30.226562 0.304688 -31.273438 1.390625 -32.203125 C 5.398438 -35.285156 7.984375 -38.253906 9.140625 -41.109375 C 10.304688 -43.972656 10.890625 -47.566406 10.890625 -51.890625 L 10.890625 -104 C 10.890625 -108.320312 10.304688 -111.945312 9.140625 -114.875 C 7.984375 -117.8125 5.398438 -120.75 1.390625 -123.6875 C 0.304688 -124.613281 -0.0820312 -125.613281 0.21875 -126.6875 C 0.53125 -127.769531 1.226562 -128.3125 2.3125 -128.3125 C 7.875 -128.3125 12.738281 -129.082031 16.90625 -130.625 C 21.070312 -132.175781 24.738281 -134.03125 27.90625 -136.1875 C 31.070312 -138.351562 33.890625 -140.285156 36.359375 -141.984375 C 38.835938 -143.679688 41.15625 -144.765625 43.3125 -145.234375 C 45.78125 -145.847656 46.859375 -145.421875 46.546875 -143.953125 C 46.242188 -142.484375 45.9375 -140.976562 45.625 -139.4375 C 43.625 -128.320312 42.351562 -116.894531 41.8125 -105.15625 C 41.269531 -93.414062 41.304688 -82.375 41.921875 -72.03125 C 42.535156 -61.6875 43.613281 -53.039062 45.15625 -46.09375 C 46.707031 -39.144531 48.5625 -34.820312 50.71875 -33.125 Z M 50.71875 -33.125 "/></g></g></g><g fill="#fff4e6" fill-opacity="1"><g transform="translate(107.910095, 183.116897)"><g><path d="M 50.71875 -33.125 C 51.957031 -32.195312 52.5 -31 52.34375 -29.53125 C 52.1875 -28.0625 50.796875 -27.328125 48.171875 -27.328125 L 2.3125 -27.328125 C 1.226562 -27.328125 0.53125 -27.90625 0.21875 -29.0625 C -0.0820312 -30.226562 0.304688 -31.273438 1.390625 -32.203125 C 5.398438 -35.285156 7.984375 -38.253906 9.140625 -41.109375 C 10.304688 -43.972656 10.890625 -47.566406 10.890625 -51.890625 L 10.890625 -104 C 10.890625 -108.320312 10.304688 -111.945312 9.140625 -114.875 C 7.984375 -117.8125 5.398438 -120.75 1.390625 -123.6875 C 0.304688 -124.613281 -0.0820312 -125.613281 0.21875 -126.6875 C 0.53125 -127.769531 1.226562 -128.3125 2.3125 -128.3125 C 7.875 -128.3125 12.738281 -129.082031 16.90625 -130.625 C 21.070312 -132.175781 24.738281 -134.03125 27.90625 -136.1875 C 31.070312 -138.351562 33.890625 -140.285156 36.359375 -141.984375 C 38.835938 -143.679688 41.15625 -144.765625 43.3125 -145.234375 C 45.78125 -145.847656 46.859375 -145.421875 46.546875 -143.953125 C 46.242188 -142.484375 45.9375 -140.976562 45.625 -139.4375 C 43.625 -128.320312 42.351562 -116.894531 41.8125 -105.15625 C 41.269531 -93.414062 41.304688 -82.375 41.921875 -72.03125 C 42.535156 -61.6875 43.613281 -53.039062 45.15625 -46.09375 C 46.707031 -39.144531 48.5625 -34.820312 50.71875 -33.125 Z M 50.71875 -33.125 "/></g></g></g><g fill="#fff4e6" fill-opacity="1"><g transform="translate(159.557196, 183.116897)"><g><path d="M 103.53125 -107.015625 C 102.757812 -102.378906 102.101562 -96.703125 101.5625 -89.984375 C 101.019531 -83.265625 100.828125 -76.273438 100.984375 -69.015625 C 101.140625 -61.765625 102.023438 -54.894531 103.640625 -48.40625 C 105.265625 -41.925781 107.851562 -36.523438 111.40625 -32.203125 C 112.488281 -31.117188 112.953125 -30.035156 112.796875 -28.953125 C 112.640625 -27.867188 111.945312 -27.328125 110.71875 -27.328125 L 89.40625 -27.328125 C 84.3125 -27.328125 80.179688 -28.71875 77.015625 -31.5 C 73.847656 -34.28125 71.644531 -37.367188 70.40625 -40.765625 C 67.9375 -37.054688 64.847656 -33.890625 61.140625 -31.265625 C 57.441406 -28.640625 52.96875 -27.328125 47.71875 -27.328125 C 40.769531 -27.328125 34.515625 -28.597656 28.953125 -31.140625 C 23.390625 -33.691406 18.988281 -38.171875 15.75 -44.578125 C 12.507812 -50.992188 10.890625 -59.914062 10.890625 -71.34375 C 10.890625 -75.664062 10.304688 -79.289062 9.140625 -82.21875 C 7.984375 -85.15625 5.398438 -88.171875 1.390625 -91.265625 C 0.304688 -92.191406 -0.0820312 -93.191406 0.21875 -94.265625 C 0.53125 -95.347656 1.226562 -95.890625 2.3125 -95.890625 C 7.875 -95.890625 12.703125 -96.660156 16.796875 -98.203125 C 20.890625 -99.753906 24.476562 -101.570312 27.5625 -103.65625 C 30.65625 -105.738281 33.394531 -107.664062 35.78125 -109.4375 C 38.175781 -111.21875 40.457031 -112.335938 42.625 -112.796875 C 45.09375 -113.265625 46.132812 -112.800781 45.75 -111.40625 C 45.363281 -110.019531 45.015625 -108.554688 44.703125 -107.015625 C 43.316406 -100.066406 42.351562 -92.613281 41.8125 -84.65625 C 41.269531 -76.707031 41.421875 -69.179688 42.265625 -62.078125 C 43.117188 -54.972656 44.738281 -49.179688 47.125 -44.703125 C 49.519531 -40.222656 52.882812 -37.984375 57.21875 -37.984375 C 59.6875 -37.984375 61.960938 -39.445312 64.046875 -42.375 C 66.128906 -45.3125 67.941406 -48.484375 69.484375 -51.890625 L 69.484375 -71.34375 C 69.484375 -75.664062 68.90625 -79.289062 67.75 -82.21875 C 66.59375 -85.15625 64.003906 -88.171875 59.984375 -91.265625 C 58.910156 -92.191406 58.523438 -93.191406 58.828125 -94.265625 C 59.140625 -95.347656 59.835938 -95.890625 60.921875 -95.890625 C 66.472656 -95.890625 71.296875 -96.660156 75.390625 -98.203125 C 79.484375 -99.753906 83.070312 -101.570312 86.15625 -103.65625 C 89.25 -105.738281 91.992188 -107.664062 94.390625 -109.4375 C 96.785156 -111.21875 99.0625 -112.335938 101.21875 -112.796875 C 103.6875 -113.265625 104.765625 -112.800781 104.453125 -111.40625 C 104.148438 -110.019531 103.84375 -108.554688 103.53125 -107.015625 Z M 103.53125 -107.015625 "/></g></g></g><g fill="#fff4e6" fill-opacity="1"><g transform="translate(270.957885, 183.116897)"><g><path d="M 164.6875 -32.203125 C 165.914062 -31.273438 166.414062 -30.226562 166.1875 -29.0625 C 165.957031 -27.90625 165.222656 -27.328125 163.984375 -27.328125 L 117.890625 -27.328125 C 115.421875 -27.328125 114.144531 -28.019531 114.0625 -29.40625 C 113.988281 -30.800781 114.492188 -32.039062 115.578125 -33.125 C 118.515625 -35.75 120.753906 -39.722656 122.296875 -45.046875 C 123.835938 -50.378906 124.6875 -56.207031 124.84375 -62.53125 C 125 -68.863281 124.613281 -74.882812 123.6875 -80.59375 C 122.757812 -86.3125 121.253906 -91.023438 119.171875 -94.734375 C 117.085938 -98.441406 114.578125 -100.296875 111.640625 -100.296875 C 108.710938 -100.296875 105.972656 -98.09375 103.421875 -93.6875 C 100.867188 -89.289062 98.742188 -83.769531 97.046875 -77.125 C 97.359375 -75.582031 97.59375 -73.960938 97.75 -72.265625 C 97.90625 -70.566406 97.984375 -68.867188 97.984375 -67.171875 L 97.984375 -51.890625 C 97.984375 -47.566406 98.5625 -43.972656 99.71875 -41.109375 C 100.875 -38.253906 103.457031 -35.285156 107.46875 -32.203125 C 108.707031 -31.273438 109.171875 -30.226562 108.859375 -29.0625 C 108.554688 -27.90625 107.785156 -27.328125 106.546875 -27.328125 L 60.453125 -27.328125 C 57.984375 -27.328125 56.707031 -28.019531 56.625 -29.40625 C 56.550781 -30.800781 57.054688 -32.039062 58.140625 -33.125 C 61.066406 -35.75 63.265625 -39.722656 64.734375 -45.046875 C 66.203125 -50.378906 67.015625 -56.207031 67.171875 -62.53125 C 67.328125 -68.863281 66.898438 -74.882812 65.890625 -80.59375 C 64.890625 -86.3125 63.347656 -91.023438 61.265625 -94.734375 C 59.179688 -98.441406 56.59375 -100.296875 53.5 -100.296875 C 51.1875 -100.296875 49.0625 -98.171875 47.125 -93.921875 C 45.195312 -89.671875 43.382812 -84.847656 41.6875 -79.453125 C 40.914062 -66.785156 41.265625 -56.515625 42.734375 -48.640625 C 44.203125 -40.765625 46.554688 -35.59375 49.796875 -33.125 C 51.035156 -32.195312 51.578125 -31 51.421875 -29.53125 C 51.265625 -28.0625 49.953125 -27.328125 47.484375 -27.328125 L 2.3125 -27.328125 C 1.226562 -27.328125 0.53125 -27.90625 0.21875 -29.0625 C -0.0820312 -30.226562 0.304688 -31.273438 1.390625 -32.203125 C 5.398438 -35.285156 7.984375 -38.253906 9.140625 -41.109375 C 10.304688 -43.972656 10.890625 -47.566406 10.890625 -51.890625 L 10.890625 -71.34375 C 10.890625 -75.664062 10.304688 -79.289062 9.140625 -82.21875 C 7.984375 -85.15625 5.398438 -88.171875 1.390625 -91.265625 C 0.304688 -92.191406 -0.0820312 -93.191406 0.21875 -94.265625 C 0.53125 -95.347656 1.226562 -95.890625 2.3125 -95.890625 C 7.875 -95.890625 12.703125 -96.660156 16.796875 -98.203125 C 20.890625 -99.753906 24.476562 -101.570312 27.5625 -103.65625 C 30.65625 -105.738281 33.394531 -107.664062 35.78125 -109.4375 C 38.175781 -111.21875 40.457031 -112.335938 42.625 -112.796875 C 45.09375 -113.265625 46.132812 -112.800781 45.75 -111.40625 C 45.363281 -110.019531 45.015625 -108.554688 44.703125 -107.015625 L 43.78125 -99.828125 C 45.9375 -103.535156 48.441406 -106.660156 51.296875 -109.203125 C 54.160156 -111.753906 57.519531 -113.03125 61.375 -113.03125 C 68.632812 -113.03125 75.117188 -110.828125 80.828125 -106.421875 C 86.546875 -102.023438 90.875 -96.195312 93.8125 -88.9375 C 95.195312 -92.800781 96.96875 -96.546875 99.125 -100.171875 C 101.289062 -103.804688 103.992188 -106.859375 107.234375 -109.328125 C 110.484375 -111.796875 114.269531 -113.03125 118.59375 -113.03125 C 125.695312 -113.03125 131.988281 -110.984375 137.46875 -106.890625 C 142.945312 -102.796875 147.269531 -97.273438 150.4375 -90.328125 C 153.601562 -83.378906 155.1875 -75.660156 155.1875 -67.171875 L 155.1875 -51.890625 C 155.1875 -47.566406 155.800781 -43.972656 157.03125 -41.109375 C 158.269531 -38.253906 160.820312 -35.285156 164.6875 -32.203125 Z M 164.6875 -32.203125 "/></g></g></g><g fill="#fff4e6" fill-opacity="1"><g transform="translate(437.248516, 183.116897)"><g><path d="M 47.484375 -27.328125 L 2.3125 -27.328125 C 1.226562 -27.328125 0.53125 -27.90625 0.21875 -29.0625 C -0.0820312 -30.226562 0.304688 -31.273438 1.390625 -32.203125 C 5.398438 -35.285156 7.984375 -38.253906 9.140625 -41.109375 C 10.304688 -43.972656 10.890625 -47.566406 10.890625 -51.890625 L 10.890625 -71.34375 C 10.890625 -75.664062 10.304688 -79.289062 9.140625 -82.21875 C 7.984375 -85.15625 5.398438 -88.171875 1.390625 -91.265625 C 0.304688 -92.191406 -0.0820312 -93.191406 0.21875 -94.265625 C 0.53125 -95.347656 1.226562 -95.890625 2.3125 -95.890625 C 7.875 -95.890625 12.703125 -96.660156 16.796875 -98.203125 C 20.890625 -99.753906 24.476562 -101.570312 27.5625 -103.65625 C 30.65625 -105.738281 33.394531 -107.664062 35.78125 -109.4375 C 38.175781 -111.21875 40.457031 -112.335938 42.625 -112.796875 C 45.09375 -113.265625 46.132812 -112.800781 45.75 -111.40625 C 45.363281 -110.019531 45.015625 -108.554688 44.703125 -107.015625 C 41.617188 -86.472656 40.613281 -69.832031 41.6875 -57.09375 C 42.769531 -44.351562 45.472656 -36.363281 49.796875 -33.125 C 51.035156 -32.195312 51.578125 -31 51.421875 -29.53125 C 51.265625 -28.0625 49.953125 -27.328125 47.484375 -27.328125 Z M 17.375 -111.40625 C 12.738281 -111.40625 9.109375 -113.066406 6.484375 -116.390625 C 3.859375 -119.710938 3.085938 -123.6875 4.171875 -128.3125 C 5.253906 -133.101562 7.800781 -137.117188 11.8125 -140.359375 C 15.820312 -143.609375 20.222656 -145.234375 25.015625 -145.234375 C 29.648438 -145.234375 33.28125 -143.609375 35.90625 -140.359375 C 38.53125 -137.117188 39.300781 -133.101562 38.21875 -128.3125 C 37.132812 -123.6875 34.582031 -119.710938 30.5625 -116.390625 C 26.550781 -113.066406 22.15625 -111.40625 17.375 -111.40625 Z M 17.375 -111.40625 "/></g></g></g><g fill="#fff4e6" fill-opacity="1"><g transform="translate(489.821987, 183.116897)"><g><path d="M 112.5625 -32.203125 C 113.800781 -31.273438 114.265625 -30.226562 113.953125 -29.0625 C 113.648438 -27.90625 112.878906 -27.328125 111.640625 -27.328125 L 65.546875 -27.328125 C 63.078125 -27.328125 61.800781 -28.019531 61.71875 -29.40625 C 61.644531 -30.800781 62.148438 -32.039062 63.234375 -33.125 C 66.171875 -35.75 68.296875 -39.800781 69.609375 -45.28125 C 70.921875 -50.757812 71.535156 -56.742188 71.453125 -63.234375 C 71.378906 -69.722656 70.644531 -75.9375 69.25 -81.875 C 67.863281 -87.820312 66.007812 -92.722656 63.6875 -96.578125 C 61.375 -100.441406 58.597656 -102.375 55.359375 -102.375 C 53.046875 -102.375 50.769531 -100.867188 48.53125 -97.859375 C 46.289062 -94.847656 44.164062 -91.101562 42.15625 -86.625 C 40.914062 -71.957031 41.03125 -60.03125 42.5 -50.84375 C 43.96875 -41.65625 46.398438 -35.75 49.796875 -33.125 C 51.035156 -32.195312 51.578125 -31 51.421875 -29.53125 C 51.265625 -28.0625 49.953125 -27.328125 47.484375 -27.328125 L 2.3125 -27.328125 C 1.226562 -27.328125 0.53125 -27.90625 0.21875 -29.0625 C -0.0820312 -30.226562 0.304688 -31.273438 1.390625 -32.203125 C 5.398438 -35.285156 7.984375 -38.253906 9.140625 -41.109375 C 10.304688 -43.972656 10.890625 -47.566406 10.890625 -51.890625 L 10.890625 -71.34375 C 10.890625 -75.664062 10.304688 -79.289062 9.140625 -82.21875 C 7.984375 -85.15625 5.398438 -88.171875 1.390625 -91.265625 C 0.304688 -92.191406 -0.0820312 -93.191406 0.21875 -94.265625 C 0.53125 -95.347656 1.226562 -95.890625 2.3125 -95.890625 C 7.875 -95.890625 12.703125 -96.660156 16.796875 -98.203125 C 20.890625 -99.753906 24.476562 -101.570312 27.5625 -103.65625 C 30.65625 -105.738281 33.394531 -107.664062 35.78125 -109.4375 C 38.175781 -111.21875 40.457031 -112.335938 42.625 -112.796875 C 45.09375 -113.265625 46.132812 -112.800781 45.75 -111.40625 C 45.363281 -110.019531 45.015625 -108.554688 44.703125 -107.015625 L 44.015625 -102.140625 C 46.328125 -105.234375 48.988281 -107.820312 52 -109.90625 C 55.007812 -111.988281 58.367188 -113.03125 62.078125 -113.03125 C 70.410156 -113.03125 77.625 -110.984375 83.71875 -106.890625 C 89.820312 -102.796875 94.570312 -97.273438 97.96875 -90.328125 C 101.375 -83.378906 103.078125 -75.660156 103.078125 -67.171875 L 103.078125 -51.890625 C 103.078125 -47.566406 103.65625 -43.972656 104.8125 -41.109375 C 105.96875 -38.253906 108.550781 -35.285156 112.5625 -32.203125 Z M 112.5625 -32.203125 "/></g></g></g><g fill="#fff4e6" fill-opacity="1"><g transform="translate(604.465129, 183.116897)"><g><path d="M 92.875 -32.203125 C 94.113281 -31.273438 94.578125 -30.226562 94.265625 -29.0625 C 93.960938 -27.90625 93.191406 -27.328125 91.953125 -27.328125 L 68.328125 -27.328125 C 64.160156 -27.328125 60.800781 -28.253906 58.25 -30.109375 C 55.707031 -31.960938 53.851562 -33.816406 52.6875 -35.671875 C 51.53125 -37.523438 50.953125 -38.453125 50.953125 -38.453125 C 48.484375 -35.054688 45.238281 -32.351562 41.21875 -30.34375 C 37.207031 -28.332031 32.890625 -27.328125 28.265625 -27.328125 C 23.160156 -27.328125 18.445312 -28.5625 14.125 -31.03125 C 9.800781 -33.507812 6.363281 -36.832031 3.8125 -41 C 1.269531 -45.164062 0 -49.71875 0 -54.65625 C 0 -59.757812 1.269531 -64.351562 3.8125 -68.4375 C 6.363281 -72.53125 9.800781 -75.8125 14.125 -78.28125 C 18.445312 -80.757812 23.160156 -82 28.265625 -82 C 32.890625 -82 37.207031 -80.992188 41.21875 -78.984375 C 45.238281 -76.972656 48.484375 -74.269531 50.953125 -70.875 L 50.953125 -77.828125 C 50.953125 -82.304688 50.410156 -86.742188 49.328125 -91.140625 C 48.253906 -95.546875 46.710938 -99.210938 44.703125 -102.140625 C 42.691406 -105.078125 40.296875 -106.546875 37.515625 -106.546875 C 35.816406 -106.546875 34.929688 -105.382812 34.859375 -103.0625 C 34.785156 -100.75 35.441406 -98.050781 36.828125 -94.96875 C 37.753906 -92.644531 37.367188 -90.671875 35.671875 -89.046875 C 33.972656 -87.429688 31.578125 -86.195312 28.484375 -85.34375 C 25.398438 -84.5 22.195312 -84.15625 18.875 -84.3125 C 15.550781 -84.46875 12.734375 -85.203125 10.421875 -86.515625 C 8.109375 -87.828125 6.953125 -89.796875 6.953125 -92.421875 C 6.953125 -97.359375 9.769531 -102.023438 15.40625 -106.421875 C 21.039062 -110.828125 29.1875 -113.03125 39.84375 -113.03125 C 48.175781 -113.03125 55.625 -111.253906 62.1875 -107.703125 C 68.75 -104.148438 73.921875 -99.207031 77.703125 -92.875 C 81.492188 -86.550781 83.390625 -79.21875 83.390625 -70.875 L 83.390625 -51.890625 C 83.390625 -47.566406 83.96875 -43.972656 85.125 -41.109375 C 86.28125 -38.253906 88.863281 -35.285156 92.875 -32.203125 Z M 38.453125 -39.84375 C 41.691406 -39.84375 44.429688 -41.304688 46.671875 -44.234375 C 48.910156 -47.171875 50.03125 -50.644531 50.03125 -54.65625 C 50.03125 -58.675781 48.910156 -62.148438 46.671875 -65.078125 C 44.429688 -68.015625 41.691406 -69.484375 38.453125 -69.484375 C 35.359375 -69.484375 32.691406 -68.015625 30.453125 -65.078125 C 28.210938 -62.148438 27.09375 -58.675781 27.09375 -54.65625 C 27.09375 -50.644531 28.210938 -47.171875 30.453125 -44.234375 C 32.691406 -41.304688 35.359375 -39.84375 38.453125 -39.84375 Z M 38.453125 -39.84375 "/></g></g></g></g></g></g><g clip-path="url(#4027499b49)"><path fill="#efc391" d="M 523.207031 1.039062 C 523.515625 2.023438 522.980469 2.746094 522.671875 3.484375 C 519.386719 11.339844 515.300781 18.808594 511.558594 26.441406 C 505.269531 39.277344 498.765625 51.992188 493.429688 65.289062 C 490.269531 73.171875 486.738281 80.914062 483.503906 88.777344 C 483.25 89.390625 483.027344 90.617188 482.273438 90.269531 C 481.351562 89.847656 482.222656 88.902344 482.488281 88.253906 C 486.515625 78.460938 490.492188 68.648438 494.636719 58.90625 C 498.847656 49.011719 503.914062 39.523438 508.625 29.867188 C 513.132812 20.628906 517.714844 11.429688 522.269531 2.214844 C 522.472656 1.8125 522.554688 1.3125 523.207031 1.039062 Z M 407.199219 1.914062 C 407.964844 4.511719 408.714844 7.113281 409.761719 9.621094 C 413.460938 18.472656 417.5625 27.1875 420.546875 36.292969 C 426.539062 54.589844 434.285156 72.214844 440.703125 90.34375 C 440.898438 90.898438 440.941406 92.011719 441.847656 91.671875 C 442.644531 91.375 441.925781 90.574219 441.765625 90.042969 C 440.285156 85.09375 438.347656 80.304688 436.453125 75.507812 C 426.800781 51.078125 417.8125 26.394531 408.261719 1.925781 C 408.070312 1.425781 407.992188 0.78125 407.199219 0.605469 C 406.945312 1.113281 407.082031 1.511719 407.199219 1.914062 Z M 516.886719 118.820312 C 524.425781 115.375 531.945312 111.886719 539.464844 108.398438 C 551.003906 103.046875 562.425781 97.433594 574.03125 92.214844 C 582.96875 88.199219 592.070312 84.527344 600.65625 79.753906 C 601.28125 79.402344 602.105469 79.257812 602.585938 78.058594 C 572.550781 91.425781 543.34375 105.691406 513.863281 119.398438 C 515.027344 119.742188 515.96875 119.242188 516.886719 118.820312 Z M 523.210938 140.085938 C 533.546875 139.769531 543.882812 140.421875 554.222656 140.046875 C 561.628906 139.777344 569.042969 140.269531 576.453125 140.402344 C 585.699219 140.570312 594.929688 140.03125 604.160156 139.679688 C 607.917969 139.539062 611.675781 139.429688 615.433594 139.296875 C 615.839844 139.28125 616.433594 139.28125 616.414062 138.773438 C 616.394531 138.160156 615.769531 138.410156 615.410156 138.417969 C 613.269531 138.488281 611.128906 138.601562 608.992188 138.683594 C 590.886719 139.386719 572.765625 138.78125 554.65625 139.363281 C 543.433594 139.722656 532.210938 138.640625 520.984375 139.164062 C 520.339844 139.195312 519.640625 138.996094 519.003906 139.710938 C 520.449219 140.15625 521.839844 140.128906 523.210938 140.085938 Z M 405.246094 138.796875 C 403.109375 138.730469 400.96875 138.710938 398.828125 138.660156 C 389.949219 138.441406 381.101562 139.457031 372.230469 139.335938 C 364.039062 139.222656 355.851562 138.894531 347.660156 138.777344 C 335.5 138.609375 323.34375 138.859375 311.183594 139.035156 C 310.695312 139.042969 309.921875 138.851562 309.894531 139.539062 C 309.859375 140.347656 310.671875 140.011719 311.109375 140.011719 C 316.957031 140.050781 322.804688 140.121094 328.648438 140.066406 C 349.679688 139.863281 370.710938 140.179688 391.738281 139.699219 C 396.070312 139.601562 400.402344 139.691406 404.734375 139.660156 C 405.375 139.65625 406.105469 139.867188 406.652344 139.253906 C 406.300781 138.695312 405.730469 138.8125 405.246094 138.796875 Z M 326.976562 78.867188 C 337.375 83.726562 347.777344 88.554688 357.765625 94.257812 C 371.414062 102.054688 385.941406 108.136719 399.765625 115.605469 C 403.386719 117.558594 407.21875 119.128906 410.960938 120.847656 C 411.269531 120.992188 411.738281 121.496094 411.996094 120.859375 C 412.167969 120.429688 411.644531 120.292969 411.335938 120.128906 C 410.324219 119.585938 409.316406 119.039062 408.289062 118.53125 C 399.582031 114.238281 390.816406 110.0625 382.171875 105.648438 C 363.582031 96.160156 344.972656 86.707031 326.261719 77.453125 C 325.820312 77.234375 325.402344 76.808594 324.644531 77.214844 C 325.246094 78.15625 326.152344 78.480469 326.976562 78.867188 Z M 463.527344 20.40625 C 463.4375 27.242188 463.3125 34.082031 463.253906 40.917969 C 463.125 56.058594 462.917969 71.199219 463.179688 86.339844 C 463.191406 87.003906 462.933594 88.117188 463.917969 88.082031 C 464.796875 88.054688 464.410156 86.980469 464.433594 86.371094 C 464.828125 75.253906 463.972656 64.144531 464.332031 53.019531 C 464.667969 42.53125 464.417969 32.027344 464.410156 21.53125 C 464.410156 20.886719 464.605469 20.167969 463.964844 19.542969 C 463.546875 19.78125 463.53125 20.085938 463.527344 20.40625 Z M 550.292969 54.148438 C 549.929688 54.328125 549.597656 54.59375 549.304688 54.875 C 545.183594 58.796875 541.109375 62.765625 536.949219 66.640625 C 532.101562 71.160156 527.117188 75.53125 522.308594 80.089844 C 515.496094 86.546875 508.898438 93.226562 502.414062 100.023438 C 501.984375 100.472656 501.574219 100.949219 501.183594 101.4375 C 500.984375 101.679688 500.835938 102.015625 501.09375 102.285156 C 501.429688 102.632812 501.765625 102.410156 502.035156 102.136719 C 502.773438 101.402344 503.496094 100.648438 504.238281 99.914062 C 508.160156 96.019531 512.28125 92.300781 515.972656 88.195312 C 521.257812 82.324219 526.886719 76.835938 532.890625 71.726562 C 538.742188 66.746094 544.128906 61.28125 549.640625 55.953125 C 550.085938 55.523438 550.46875 55.027344 550.824219 54.628906 C 550.796875 54.152344 550.535156 54.023438 550.292969 54.148438 Z M 377.777344 52.699219 C 378.054688 53.523438 378.722656 54.054688 379.308594 54.632812 C 391.984375 67.132812 403.976562 80.296875 416.636719 92.808594 C 419.460938 95.597656 422.136719 98.523438 424.804688 101.460938 C 425.097656 101.789062 425.484375 102.300781 425.972656 101.859375 C 426.464844 101.410156 425.992188 101.011719 425.683594 100.671875 C 424.558594 99.4375 423.441406 98.195312 422.289062 96.988281 C 414.785156 89.140625 406.917969 81.648438 399.328125 73.886719 C 393.347656 67.769531 387.714844 61.308594 381.453125 55.460938 C 380.339844 54.417969 379.210938 53.390625 378.085938 52.355469 C 377.984375 52.472656 377.878906 52.585938 377.777344 52.699219 Z M 433.890625 95.496094 C 433.761719 94.289062 433.007812 93.335938 432.371094 92.359375 C 427.199219 84.394531 422.109375 76.375 416.667969 68.585938 C 415.53125 66.960938 414.417969 65.324219 413.269531 63.703125 C 413.074219 63.425781 412.789062 63.039062 412.382812 63.351562 C 412.054688 63.597656 412.339844 63.921875 412.472656 64.1875 C 412.589844 64.417969 412.742188 64.632812 412.886719 64.851562 C 418.574219 73.222656 424.566406 81.390625 429.609375 90.191406 C 430.730469 92.144531 432.1875 93.90625 433.488281 95.757812 C 433.621094 95.671875 433.757812 95.585938 433.890625 95.496094 Z M 453.777344 88.148438 C 453.773438 86.507812 453.136719 84.992188 452.835938 83.410156 C 450.84375 72.917969 448.878906 62.421875 446.878906 51.933594 C 446.742188 51.214844 446.761719 49.875 446.011719 50.035156 C 445.082031 50.230469 445.605469 51.441406 445.761719 52.191406 C 447.75 61.777344 450.128906 71.285156 451.332031 81.027344 C 451.660156 83.699219 452.433594 86.289062 453.242188 88.9375 C 453.828125 88.675781 453.777344 88.390625 453.777344 88.148438 Z M 417.488281 108.132812 C 415.914062 106.671875 414.117188 105.503906 412.355469 104.289062 C 406.519531 100.253906 400.675781 96.230469 395.082031 91.851562 C 393.316406 90.472656 391.445312 89.226562 389.601562 87.953125 C 389.242188 87.707031 388.691406 87.367188 388.378906 87.929688 C 388.132812 88.378906 388.660156 88.65625 388.984375 88.890625 C 390.039062 89.65625 391.105469 90.40625 392.1875 91.136719 C 394.046875 92.390625 395.957031 93.574219 397.785156 94.871094 C 404.160156 99.410156 410.164062 104.457031 416.699219 108.777344 C 417.21875 109.125 417.636719 109.824219 418.496094 109.480469 C 418.394531 108.835938 417.890625 108.511719 417.488281 108.132812 Z M 408.15625 129.113281 C 407.929688 128.996094 407.714844 128.816406 407.476562 128.777344 C 402.597656 127.949219 397.898438 126.339844 393.042969 125.40625 C 387.210938 124.28125 381.609375 122.25 375.800781 121.035156 C 374.769531 120.820312 373.679688 120.296875 372.492188 120.847656 C 373.039062 121.621094 373.792969 121.667969 374.480469 121.84375 C 379.117188 123.027344 383.78125 124.089844 388.457031 125.121094 C 393.226562 126.171875 397.90625 127.636719 402.648438 128.824219 C 404.417969 129.269531 406.238281 129.660156 408.082031 129.503906 C 408.109375 129.375 408.132812 129.242188 408.15625 129.113281 Z M 510.230469 110.550781 C 511.671875 109.523438 513.085938 108.453125 514.523438 107.417969 C 521.421875 102.46875 528.335938 97.535156 535.226562 92.574219 C 536.027344 92 536.742188 91.308594 537.472656 90.640625 C 537.71875 90.417969 538.144531 90.136719 537.773438 89.75 C 537.503906 89.46875 537.179688 89.757812 536.941406 89.925781 C 535.738281 90.753906 534.558594 91.613281 533.355469 92.4375 C 529.273438 95.242188 525.742188 98.773438 521.519531 101.394531 C 517.574219 103.84375 513.792969 106.53125 510.140625 109.398438 C 509.578125 109.835938 508.902344 110.195312 508.71875 111.070312 C 509.46875 111.304688 509.828125 110.835938 510.230469 110.550781 Z M 495.476562 92.292969 C 499.367188 85.996094 503.289062 79.722656 507.710938 73.777344 C 509.394531 71.519531 510.886719 69.132812 512.28125 66.683594 C 512.53125 66.242188 512.976562 65.597656 512.472656 65.285156 C 511.90625 64.929688 511.613281 65.679688 511.367188 66.09375 C 505.988281 75.027344 499.886719 83.488281 494.277344 92.269531 C 493.597656 93.335938 492.765625 94.335938 492.542969 95.664062 C 493.933594 94.859375 494.695312 93.558594 495.476562 92.292969 Z M 473.683594 88.425781 C 473.824219 87.882812 473.996094 87.347656 474.105469 86.800781 C 476.128906 76.375 477.953125 65.910156 480.386719 55.566406 C 480.636719 54.503906 480.792969 53.417969 480.953125 52.335938 C 481.015625 51.933594 481.042969 51.386719 480.503906 51.324219 C 479.96875 51.257812 479.933594 51.828125 479.804688 52.207031 C 479.738281 52.398438 479.746094 52.617188 479.714844 52.824219 C 478.285156 62.40625 476.136719 71.851562 474.242188 81.347656 C 473.78125 83.648438 473.320312 85.996094 473.273438 88.367188 C 473.410156 88.386719 473.546875 88.40625 473.683594 88.425781 Z M 552.136719 122.0625 C 540.773438 124.445312 529.402344 126.785156 518.199219 129.894531 C 520.53125 130.25 551.421875 123.082031 552.136719 122.0625 Z M 368.558594 120.105469 C 368.707031 120.125 368.96875 119.957031 369.03125 119.8125 C 369.167969 119.503906 368.90625 119.328125 368.65625 119.257812 C 366.851562 118.753906 365.082031 118.042969 363.121094 118.269531 C 364.804688 119.28125 366.617188 119.890625 368.558594 120.105469 Z M 407.328125 55.804688 C 407.195312 55.769531 406.9375 55.789062 406.917969 55.84375 C 406.859375 56.019531 406.8125 56.261719 406.894531 56.410156 C 407.605469 57.753906 408.484375 58.980469 409.476562 60.128906 C 409.660156 60.339844 409.910156 60.449219 410.167969 60.316406 C 410.273438 60.261719 410.308594 60.074219 410.339844 60.015625 C 410.34375 59.398438 407.828125 55.933594 407.328125 55.804688 Z M 541.15625 86.613281 C 540.90625 86.8125 540.742188 87.148438 540.945312 87.4375 C 541.171875 87.769531 541.515625 87.585938 541.773438 87.425781 C 543.09375 86.617188 544.273438 85.640625 545.113281 84.269531 C 543.589844 84.761719 542.355469 85.660156 541.15625 86.613281 Z M 444.859375 45.6875 C 444.929688 45.976562 445.027344 46.335938 445.4375 46.28125 C 445.738281 46.242188 445.867188 45.984375 445.800781 45.703125 C 445.417969 44.035156 445.351562 42.261719 444.175781 40.828125 C 444.035156 42.511719 444.480469 44.097656 444.859375 45.6875 Z M 482.503906 42.863281 C 482.527344 42.710938 482.371094 42.4375 482.226562 42.371094 C 481.914062 42.230469 481.753906 42.511719 481.691406 42.753906 C 481.316406 44.273438 480.753906 45.78125 481.308594 47.414062 C 482.332031 46.046875 482.277344 44.417969 482.503906 42.863281 Z M 517.859375 57.234375 C 516.671875 58.773438 515.113281 60.0625 514.730469 62.121094 C 516.0625 60.675781 517.433594 59.257812 517.859375 57.234375 Z M 379.371094 81.960938 C 380.441406 83.472656 381.976562 84.34375 383.707031 84.96875 C 382.578125 83.527344 381.234375 82.367188 379.371094 81.960938 Z M 556.054688 121.339844 C 557.757812 121.050781 559.578125 121.148438 560.957031 119.824219 C 559.238281 120.089844 557.398438 119.953125 556.054688 121.339844 Z M 556.054688 121.339844 " fill-opacity="1" fill-rule="nonzero"/><path fill="#efc391" d="M 523.207031 1.039062 C 523.515625 2.023438 522.980469 2.746094 522.671875 3.484375 C 519.386719 11.339844 515.300781 18.808594 511.558594 26.441406 C 505.269531 39.277344 498.765625 51.992188 493.429688 65.289062 C 490.269531 73.171875 486.738281 80.914062 483.503906 88.777344 C 483.25 89.390625 483.027344 90.617188 482.273438 90.269531 C 481.351562 89.847656 482.222656 88.902344 482.488281 88.253906 C 486.515625 78.460938 490.492188 68.648438 494.636719 58.90625 C 498.847656 49.011719 503.914062 39.523438 508.625 29.867188 C 513.132812 20.628906 517.714844 11.429688 522.269531 2.214844 C 522.472656 1.8125 522.554688 1.3125 523.207031 1.039062 Z M 407.199219 1.914062 C 407.964844 4.511719 408.714844 7.113281 409.761719 9.621094 C 413.460938 18.472656 417.5625 27.1875 420.546875 36.292969 C 426.539062 54.589844 434.285156 72.214844 440.703125 90.34375 C 440.898438 90.898438 440.941406 92.011719 441.847656 91.671875 C 442.644531 91.375 441.925781 90.574219 441.765625 90.042969 C 440.285156 85.09375 438.347656 80.304688 436.453125 75.507812 C 426.800781 51.078125 417.8125 26.394531 408.261719 1.925781 C 408.070312 1.425781 407.992188 0.78125 407.199219 0.605469 C 406.945312 1.113281 407.082031 1.511719 407.199219 1.914062 Z M 516.886719 118.820312 C 524.425781 115.375 531.945312 111.886719 539.464844 108.398438 C 551.003906 103.046875 562.425781 97.433594 574.03125 92.214844 C 582.96875 88.199219 592.070312 84.527344 600.65625 79.753906 C 601.28125 79.402344 602.105469 79.257812 602.585938 78.058594 C 572.550781 91.425781 543.34375 105.691406 513.863281 119.398438 C 515.027344 119.742188 515.96875 119.242188 516.886719 118.820312 Z M 523.210938 140.085938 C 533.546875 139.769531 543.882812 140.421875 554.222656 140.046875 C 561.628906 139.777344 569.042969 140.269531 576.453125 140.402344 C 585.699219 140.570312 594.929688 140.03125 604.160156 139.679688 C 607.917969 139.539062 611.675781 139.429688 615.433594 139.296875 C 615.839844 139.28125 616.433594 139.28125 616.414062 138.773438 C 616.394531 138.160156 615.769531 138.410156 615.410156 138.417969 C 613.269531 138.488281 611.128906 138.601562 608.992188 138.683594 C 590.886719 139.386719 572.765625 138.78125 554.65625 139.363281 C 543.433594 139.722656 532.210938 138.640625 520.984375 139.164062 C 520.339844 139.195312 519.640625 138.996094 519.003906 139.710938 C 520.449219 140.15625 521.839844 140.128906 523.210938 140.085938 Z M 405.246094 138.796875 C 403.109375 138.730469 400.96875 138.710938 398.828125 138.660156 C 389.949219 138.441406 381.101562 139.457031 372.230469 139.335938 C 364.039062 139.222656 355.851562 138.894531 347.660156 138.777344 C 335.5 138.609375 323.34375 138.859375 311.183594 139.035156 C 310.695312 139.042969 309.921875 138.851562 309.894531 139.539062 C 309.859375 140.347656 310.671875 140.011719 311.109375 140.011719 C 316.957031 140.050781 322.804688 140.121094 328.648438 140.066406 C 349.679688 139.863281 370.710938 140.179688 391.738281 139.699219 C 396.070312 139.601562 400.402344 139.691406 404.734375 139.660156 C 405.375 139.65625 406.105469 139.867188 406.652344 139.253906 C 406.300781 138.695312 405.730469 138.8125 405.246094 138.796875 Z M 326.976562 78.867188 C 337.375 83.726562 347.777344 88.554688 357.765625 94.257812 C 371.414062 102.054688 385.941406 108.136719 399.765625 115.605469 C 403.386719 117.558594 407.21875 119.128906 410.960938 120.847656 C 411.269531 120.992188 411.738281 121.496094 411.996094 120.859375 C 412.167969 120.429688 411.644531 120.292969 411.335938 120.128906 C 410.324219 119.585938 409.316406 119.039062 408.289062 118.53125 C 399.582031 114.238281 390.816406 110.0625 382.171875 105.648438 C 363.582031 96.160156 344.972656 86.707031 326.261719 77.453125 C 325.820312 77.234375 325.402344 76.808594 324.644531 77.214844 C 325.246094 78.15625 326.152344 78.480469 326.976562 78.867188 Z M 463.527344 20.40625 C 463.4375 27.242188 463.3125 34.082031 463.253906 40.917969 C 463.125 56.058594 462.917969 71.199219 463.179688 86.339844 C 463.191406 87.003906 462.933594 88.117188 463.917969 88.082031 C 464.796875 88.054688 464.410156 86.980469 464.433594 86.371094 C 464.828125 75.253906 463.972656 64.144531 464.332031 53.019531 C 464.667969 42.53125 464.417969 32.027344 464.410156 21.53125 C 464.410156 20.886719 464.605469 20.167969 463.964844 19.542969 C 463.546875 19.78125 463.53125 20.085938 463.527344 20.40625 Z M 550.292969 54.148438 C 549.929688 54.328125 549.597656 54.59375 549.304688 54.875 C 545.183594 58.796875 541.109375 62.765625 536.949219 66.640625 C 532.101562 71.160156 527.117188 75.53125 522.308594 80.089844 C 515.496094 86.546875 508.898438 93.226562 502.414062 100.023438 C 501.984375 100.472656 501.574219 100.949219 501.183594 101.4375 C 500.984375 101.679688 500.835938 102.015625 501.09375 102.285156 C 501.429688 102.632812 501.765625 102.410156 502.035156 102.136719 C 502.773438 101.402344 503.496094 100.648438 504.238281 99.914062 C 508.160156 96.019531 512.28125 92.300781 515.972656 88.195312 C 521.257812 82.324219 526.886719 76.835938 532.890625 71.726562 C 538.742188 66.746094 544.128906 61.28125 549.640625 55.953125 C 550.085938 55.523438 550.46875 55.027344 550.824219 54.628906 C 550.796875 54.152344 550.535156 54.023438 550.292969 54.148438 Z M 377.777344 52.699219 C 378.054688 53.523438 378.722656 54.054688 379.308594 54.632812 C 391.984375 67.132812 403.976562 80.296875 416.636719 92.808594 C 419.460938 95.597656 422.136719 98.523438 424.804688 101.460938 C 425.097656 101.789062 425.484375 102.300781 425.972656 101.859375 C 426.464844 101.410156 425.992188 101.011719 425.683594 100.671875 C 424.558594 99.4375 423.441406 98.195312 422.289062 96.988281 C 414.785156 89.140625 406.917969 81.648438 399.328125 73.886719 C 393.347656 67.769531 387.714844 61.308594 381.453125 55.460938 C 380.339844 54.417969 379.210938 53.390625 378.085938 52.355469 C 377.984375 52.472656 377.878906 52.585938 377.777344 52.699219 Z M 433.890625 95.496094 C 433.761719 94.289062 433.007812 93.335938 432.371094 92.359375 C 427.199219 84.394531 422.109375 76.375 416.667969 68.585938 C 415.53125 66.960938 414.417969 65.324219 413.269531 63.703125 C 413.074219 63.425781 412.789062 63.039062 412.382812 63.351562 C 412.054688 63.597656 412.339844 63.921875 412.472656 64.1875 C 412.589844 64.417969 412.742188 64.632812 412.886719 64.851562 C 418.574219 73.222656 424.566406 81.390625 429.609375 90.191406 C 430.730469 92.144531 432.1875 93.90625 433.488281 95.757812 C 433.621094 95.671875 433.757812 95.585938 433.890625 95.496094 Z M 453.777344 88.148438 C 453.773438 86.507812 453.136719 84.992188 452.835938 83.410156 C 450.84375 72.917969 448.878906 62.421875 446.878906 51.933594 C 446.742188 51.214844 446.761719 49.875 446.011719 50.035156 C 445.082031 50.230469 445.605469 51.441406 445.761719 52.191406 C 447.75 61.777344 450.128906 71.285156 451.332031 81.027344 C 451.660156 83.699219 452.433594 86.289062 453.242188 88.9375 C 453.828125 88.675781 453.777344 88.390625 453.777344 88.148438 Z M 417.488281 108.132812 C 415.914062 106.671875 414.117188 105.503906 412.355469 104.289062 C 406.519531 100.253906 400.675781 96.230469 395.082031 91.851562 C 393.316406 90.472656 391.445312 89.226562 389.601562 87.953125 C 389.242188 87.707031 388.691406 87.367188 388.378906 87.929688 C 388.132812 88.378906 388.660156 88.65625 388.984375 88.890625 C 390.039062 89.65625 391.105469 90.40625 392.1875 91.136719 C 394.046875 92.390625 395.957031 93.574219 397.785156 94.871094 C 404.160156 99.410156 410.164062 104.457031 416.699219 108.777344 C 417.21875 109.125 417.636719 109.824219 418.496094 109.480469 C 418.394531 108.835938 417.890625 108.511719 417.488281 108.132812 Z M 408.15625 129.113281 C 407.929688 128.996094 407.714844 128.816406 407.476562 128.777344 C 402.597656 127.949219 397.898438 126.339844 393.042969 125.40625 C 387.210938 124.28125 381.609375 122.25 375.800781 121.035156 C 374.769531 120.820312 373.679688 120.296875 372.492188 120.847656 C 373.039062 121.621094 373.792969 121.667969 374.480469 121.84375 C 379.117188 123.027344 383.78125 124.089844 388.457031 125.121094 C 393.226562 126.171875 397.90625 127.636719 402.648438 128.824219 C 404.417969 129.269531 406.238281 129.660156 408.082031 129.503906 C 408.109375 129.375 408.132812 129.242188 408.15625 129.113281 Z M 510.230469 110.550781 C 511.671875 109.523438 513.085938 108.453125 514.523438 107.417969 C 521.421875 102.46875 528.335938 97.535156 535.226562 92.574219 C 536.027344 92 536.742188 91.308594 537.472656 90.640625 C 537.71875 90.417969 538.144531 90.136719 537.773438 89.75 C 537.503906 89.46875 537.179688 89.757812 536.941406 89.925781 C 535.738281 90.753906 534.558594 91.613281 533.355469 92.4375 C 529.273438 95.242188 525.742188 98.773438 521.519531 101.394531 C 517.574219 103.84375 513.792969 106.53125 510.140625 109.398438 C 509.578125 109.835938 508.902344 110.195312 508.71875 111.070312 C 509.46875 111.304688 509.828125 110.835938 510.230469 110.550781 Z M 495.476562 92.292969 C 499.367188 85.996094 503.289062 79.722656 507.710938 73.777344 C 509.394531 71.519531 510.886719 69.132812 512.28125 66.683594 C 512.53125 66.242188 512.976562 65.597656 512.472656 65.285156 C 511.90625 64.929688 511.613281 65.679688 511.367188 66.09375 C 505.988281 75.027344 499.886719 83.488281 494.277344 92.269531 C 493.597656 93.335938 492.765625 94.335938 492.542969 95.664062 C 493.933594 94.859375 494.695312 93.558594 495.476562 92.292969 Z M 473.683594 88.425781 C 473.824219 87.882812 473.996094 87.347656 474.105469 86.800781 C 476.128906 76.375 477.953125 65.910156 480.386719 55.566406 C 480.636719 54.503906 480.792969 53.417969 480.953125 52.335938 C 481.015625 51.933594 481.042969 51.386719 480.503906 51.324219 C 479.96875 51.257812 479.933594 51.828125 479.804688 52.207031 C 479.738281 52.398438 479.746094 52.617188 479.714844 52.824219 C 478.285156 62.40625 476.136719 71.851562 474.242188 81.347656 C 473.78125 83.648438 473.320312 85.996094 473.273438 88.367188 C 473.410156 88.386719 473.546875 88.40625 473.683594 88.425781 Z M 552.136719 122.0625 C 540.773438 124.445312 529.402344 126.785156 518.199219 129.894531 C 520.53125 130.25 551.421875 123.082031 552.136719 122.0625 Z M 368.558594 120.105469 C 368.707031 120.125 368.96875 119.957031 369.03125 119.8125 C 369.167969 119.503906 368.90625 119.328125 368.65625 119.257812 C 366.851562 118.753906 365.082031 118.042969 363.121094 118.269531 C 364.804688 119.28125 366.617188 119.890625 368.558594 120.105469 Z M 407.328125 55.804688 C 407.195312 55.769531 406.9375 55.789062 406.917969 55.84375 C 406.859375 56.019531 406.8125 56.261719 406.894531 56.410156 C 407.605469 57.753906 408.484375 58.980469 409.476562 60.128906 C 409.660156 60.339844 409.910156 60.449219 410.167969 60.316406 C 410.273438 60.261719 410.308594 60.074219 410.339844 60.015625 C 410.34375 59.398438 407.828125 55.933594 407.328125 55.804688 Z M 541.15625 86.613281 C 540.90625 86.8125 540.742188 87.148438 540.945312 87.4375 C 541.171875 87.769531 541.515625 87.585938 541.773438 87.425781 C 543.09375 86.617188 544.273438 85.640625 545.113281 84.269531 C 543.589844 84.761719 542.355469 85.660156 541.15625 86.613281 Z M 444.859375 45.6875 C 444.929688 45.976562 445.027344 46.335938 445.4375 46.28125 C 445.738281 46.242188 445.867188 45.984375 445.800781 45.703125 C 445.417969 44.035156 445.351562 42.261719 444.175781 40.828125 C 444.035156 42.511719 444.480469 44.097656 444.859375 45.6875 Z M 482.503906 42.863281 C 482.527344 42.710938 482.371094 42.4375 482.226562 42.371094 C 481.914062 42.230469 481.753906 42.511719 481.691406 42.753906 C 481.316406 44.273438 480.753906 45.78125 481.308594 47.414062 C 482.332031 46.046875 482.277344 44.417969 482.503906 42.863281 Z M 517.859375 57.234375 C 516.671875 58.773438 515.113281 60.0625 514.730469 62.121094 C 516.0625 60.675781 517.433594 59.257812 517.859375 57.234375 Z M 379.371094 81.960938 C 380.441406 83.472656 381.976562 84.34375 383.707031 84.96875 C 382.578125 83.527344 381.234375 82.367188 379.371094 81.960938 Z M 556.054688 121.339844 C 557.757812 121.050781 559.578125 121.148438 560.957031 119.824219 C 559.238281 120.089844 557.398438 119.953125 556.054688 121.339844 Z M 556.054688 121.339844 " fill-opacity="1" fill-rule="nonzero"/></g></g></g></svg>