<svg xmlns="http://www.w3.org/2000/svg" xmlns:xlink="http://www.w3.org/1999/xlink" width="1000" zoomAndPan="magnify" viewBox="0 0 750 262.499992" height="350" preserveAspectRatio="xMidYMid meet" version="1.0"><defs><g/><clipPath id="f5eca567c1"><path d="M 0.714844 0 L 749.285156 0 L 749.285156 262 L 0.714844 262 Z M 0.714844 0 " clip-rule="nonzero"/></clipPath><clipPath id="0a4f6975bb"><path d="M 0.714844 79 L 749.285156 79 L 749.285156 262 L 0.714844 262 Z M 0.714844 79 " clip-rule="nonzero"/></clipPath><clipPath id="b2c7ac0506"><path d="M 0.714844 40 L 57 40 L 57 168 L 0.714844 168 Z M 0.714844 40 " clip-rule="nonzero"/></clipPath><clipPath id="874b251416"><path d="M 647 75 L 749.285156 75 L 749.285156 168 L 647 168 Z M 647 75 " clip-rule="nonzero"/></clipPath><clipPath id="5ee297c376"><rect x="0" width="750" y="0" height="183"/></clipPath><clipPath id="6bafac6d45"><path d="M 330.492188 0 L 660.261719 0 L 660.261719 144.460938 L 330.492188 144.460938 Z M 330.492188 0 " clip-rule="nonzero"/></clipPath><clipPath id="3fe78ed7a1"><rect x="0" width="750" y="0" height="262"/></clipPath></defs><g clip-path="url(#f5eca567c1)"><g transform="matrix(1, 0, 0, 1, 0.000000000000000222, 0)"><g clip-path="url(#3fe78ed7a1)"><g clip-path="url(#0a4f6975bb)"><g transform="matrix(1, 0, 0, 1, 0.000000000000000222, 79)"><g clip-path="url(#5ee297c376)"><g clip-path="url(#b2c7ac0506)"><g fill="#fff4e6" fill-opacity="1"><g transform="translate(1.148336, 197.113976)"><g><path d="M 51.078125 -29.40625 L 2.484375 -29.40625 C 1.328125 -29.40625 0.582031 -30.023438 0.25 -31.265625 C -0.0820312 -32.515625 0.332031 -33.640625 1.5 -34.640625 C 5.8125 -37.960938 8.59375 -41.160156 9.84375 -44.234375 C 11.09375 -47.304688 11.71875 -51.164062 11.71875 -55.8125 L 11.71875 -76.75 C 11.71875 -81.394531 11.09375 -85.296875 9.84375 -88.453125 C 8.59375 -91.609375 5.8125 -94.847656 1.5 -98.171875 C 0.332031 -99.171875 -0.0820312 -100.25 0.25 -101.40625 C 0.582031 -102.570312 1.328125 -103.15625 2.484375 -103.15625 C 8.472656 -103.15625 13.664062 -103.984375 18.0625 -105.640625 C 22.46875 -107.304688 26.332031 -109.257812 29.65625 -111.5 C 32.976562 -113.75 35.925781 -115.828125 38.5 -117.734375 C 41.070312 -119.640625 43.519531 -120.84375 45.84375 -121.34375 C 48.5 -121.84375 49.617188 -121.34375 49.203125 -119.84375 C 48.796875 -118.351562 48.425781 -116.78125 48.09375 -115.125 C 44.769531 -93.03125 43.6875 -75.128906 44.84375 -61.421875 C 46.007812 -47.710938 48.921875 -39.113281 53.578125 -35.625 C 54.898438 -34.632812 55.476562 -33.347656 55.3125 -31.765625 C 55.144531 -30.191406 53.734375 -29.40625 51.078125 -29.40625 Z M 18.6875 -119.859375 C 13.707031 -119.859375 9.800781 -121.640625 6.96875 -125.203125 C 4.144531 -128.773438 3.316406 -133.054688 4.484375 -138.046875 C 5.648438 -143.191406 8.390625 -147.507812 12.703125 -151 C 17.023438 -154.488281 21.757812 -156.234375 26.90625 -156.234375 C 31.894531 -156.234375 35.800781 -154.488281 38.625 -151 C 41.445312 -147.507812 42.273438 -143.191406 41.109375 -138.046875 C 39.953125 -133.054688 37.210938 -128.773438 32.890625 -125.203125 C 28.566406 -121.640625 23.832031 -119.859375 18.6875 -119.859375 Z M 18.6875 -119.859375 "/></g></g></g></g><g fill="#fff4e6" fill-opacity="1"><g transform="translate(57.706857, 197.113976)"><g><path d="M 54.5625 -35.625 C 55.894531 -34.632812 56.476562 -33.347656 56.3125 -31.765625 C 56.144531 -30.191406 54.648438 -29.40625 51.828125 -29.40625 L 2.484375 -29.40625 C 1.328125 -29.40625 0.582031 -30.023438 0.25 -31.265625 C -0.0820312 -32.515625 0.332031 -33.640625 1.5 -34.640625 C 5.8125 -37.960938 8.59375 -41.160156 9.84375 -44.234375 C 11.09375 -47.304688 11.71875 -51.164062 11.71875 -55.8125 L 11.71875 -111.875 C 11.71875 -116.53125 11.09375 -120.4375 9.84375 -123.59375 C 8.59375 -126.75 5.8125 -129.90625 1.5 -133.0625 C 0.332031 -134.050781 -0.0820312 -135.128906 0.25 -136.296875 C 0.582031 -137.460938 1.328125 -138.046875 2.484375 -138.046875 C 8.472656 -138.046875 13.707031 -138.875 18.1875 -140.53125 C 22.675781 -142.195312 26.625 -144.191406 30.03125 -146.515625 C 33.4375 -148.835938 36.46875 -150.910156 39.125 -152.734375 C 41.78125 -154.566406 44.269531 -155.734375 46.59375 -156.234375 C 49.25 -156.898438 50.410156 -156.441406 50.078125 -154.859375 C 49.742188 -153.285156 49.414062 -151.664062 49.09375 -150 C 46.925781 -138.039062 45.550781 -125.75 44.96875 -113.125 C 44.394531 -100.5 44.4375 -88.617188 45.09375 -77.484375 C 45.757812 -66.359375 46.921875 -57.054688 48.578125 -49.578125 C 50.242188 -42.109375 52.238281 -37.457031 54.5625 -35.625 Z M 54.5625 -35.625 "/></g></g></g><g fill="#fff4e6" fill-opacity="1"><g transform="translate(113.268746, 197.113976)"><g><path d="M 54.5625 -35.625 C 55.894531 -34.632812 56.476562 -33.347656 56.3125 -31.765625 C 56.144531 -30.191406 54.648438 -29.40625 51.828125 -29.40625 L 2.484375 -29.40625 C 1.328125 -29.40625 0.582031 -30.023438 0.25 -31.265625 C -0.0820312 -32.515625 0.332031 -33.640625 1.5 -34.640625 C 5.8125 -37.960938 8.59375 -41.160156 9.84375 -44.234375 C 11.09375 -47.304688 11.71875 -51.164062 11.71875 -55.8125 L 11.71875 -111.875 C 11.71875 -116.53125 11.09375 -120.4375 9.84375 -123.59375 C 8.59375 -126.75 5.8125 -129.90625 1.5 -133.0625 C 0.332031 -134.050781 -0.0820312 -135.128906 0.25 -136.296875 C 0.582031 -137.460938 1.328125 -138.046875 2.484375 -138.046875 C 8.472656 -138.046875 13.707031 -138.875 18.1875 -140.53125 C 22.675781 -142.195312 26.625 -144.191406 30.03125 -146.515625 C 33.4375 -148.835938 36.46875 -150.910156 39.125 -152.734375 C 41.78125 -154.566406 44.269531 -155.734375 46.59375 -156.234375 C 49.25 -156.898438 50.410156 -156.441406 50.078125 -154.859375 C 49.742188 -153.285156 49.414062 -151.664062 49.09375 -150 C 46.925781 -138.039062 45.550781 -125.75 44.96875 -113.125 C 44.394531 -100.5 44.4375 -88.617188 45.09375 -77.484375 C 45.757812 -66.359375 46.921875 -57.054688 48.578125 -49.578125 C 50.242188 -42.109375 52.238281 -37.457031 54.5625 -35.625 Z M 54.5625 -35.625 "/></g></g></g><g fill="#fff4e6" fill-opacity="1"><g transform="translate(168.830634, 197.113976)"><g><path d="M 111.375 -115.125 C 110.550781 -110.132812 109.847656 -104.023438 109.265625 -96.796875 C 108.679688 -89.578125 108.472656 -82.0625 108.640625 -74.25 C 108.804688 -66.445312 109.757812 -59.054688 111.5 -52.078125 C 113.25 -45.097656 116.035156 -39.285156 119.859375 -34.640625 C 121.015625 -33.472656 121.507812 -32.304688 121.34375 -31.140625 C 121.175781 -29.984375 120.429688 -29.40625 119.109375 -29.40625 L 96.1875 -29.40625 C 90.695312 -29.40625 86.25 -30.898438 82.84375 -33.890625 C 79.4375 -36.878906 77.070312 -40.203125 75.75 -43.859375 C 73.09375 -39.867188 69.769531 -36.460938 65.78125 -33.640625 C 61.789062 -30.816406 56.972656 -29.40625 51.328125 -29.40625 C 43.847656 -29.40625 37.117188 -30.773438 31.140625 -33.515625 C 25.160156 -36.253906 20.425781 -41.070312 16.9375 -47.96875 C 13.457031 -54.863281 11.71875 -64.457031 11.71875 -76.75 C 11.71875 -81.394531 11.09375 -85.296875 9.84375 -88.453125 C 8.59375 -91.609375 5.8125 -94.847656 1.5 -98.171875 C 0.332031 -99.171875 -0.0820312 -100.25 0.25 -101.40625 C 0.582031 -102.570312 1.328125 -103.15625 2.484375 -103.15625 C 8.472656 -103.15625 13.664062 -103.984375 18.0625 -105.640625 C 22.46875 -107.304688 26.332031 -109.257812 29.65625 -111.5 C 32.976562 -113.75 35.925781 -115.828125 38.5 -117.734375 C 41.070312 -119.640625 43.519531 -120.84375 45.84375 -121.34375 C 48.5 -121.84375 49.617188 -121.34375 49.203125 -119.84375 C 48.796875 -118.351562 48.425781 -116.78125 48.09375 -115.125 C 46.59375 -107.644531 45.550781 -99.625 44.96875 -91.0625 C 44.394531 -82.507812 44.5625 -74.410156 45.46875 -66.765625 C 46.382812 -59.128906 48.128906 -52.898438 50.703125 -48.078125 C 53.273438 -43.265625 56.890625 -40.859375 61.546875 -40.859375 C 64.203125 -40.859375 66.648438 -42.4375 68.890625 -45.59375 C 71.140625 -48.75 73.09375 -52.15625 74.75 -55.8125 L 74.75 -76.75 C 74.75 -81.394531 74.125 -85.296875 72.875 -88.453125 C 71.632812 -91.609375 68.851562 -94.847656 64.53125 -98.171875 C 63.375 -99.171875 62.957031 -100.25 63.28125 -101.40625 C 63.613281 -102.570312 64.363281 -103.15625 65.53125 -103.15625 C 71.507812 -103.15625 76.695312 -103.984375 81.09375 -105.640625 C 85.5 -107.304688 89.363281 -109.257812 92.6875 -111.5 C 96.007812 -113.75 98.957031 -115.828125 101.53125 -117.734375 C 104.113281 -119.640625 106.566406 -120.84375 108.890625 -121.34375 C 111.546875 -121.84375 112.707031 -121.34375 112.375 -119.84375 C 112.039062 -118.351562 111.707031 -116.78125 111.375 -115.125 Z M 111.375 -115.125 "/></g></g></g><g fill="#fff4e6" fill-opacity="1"><g transform="translate(288.67536, 197.113976)"><g><path d="M 177.15625 -34.640625 C 178.488281 -33.640625 179.03125 -32.515625 178.78125 -31.265625 C 178.53125 -30.023438 177.738281 -29.40625 176.40625 -29.40625 L 126.828125 -29.40625 C 124.171875 -29.40625 122.800781 -30.148438 122.71875 -31.640625 C 122.632812 -33.140625 123.175781 -34.46875 124.34375 -35.625 C 127.5 -38.457031 129.90625 -42.738281 131.5625 -48.46875 C 133.21875 -54.195312 134.128906 -60.46875 134.296875 -67.28125 C 134.460938 -74.09375 134.046875 -80.570312 133.046875 -86.71875 C 132.054688 -92.863281 130.4375 -97.925781 128.1875 -101.90625 C 125.945312 -105.894531 123.25 -107.890625 120.09375 -107.890625 C 116.9375 -107.890625 113.988281 -105.519531 111.25 -100.78125 C 108.507812 -96.050781 106.226562 -90.113281 104.40625 -82.96875 C 104.738281 -81.3125 104.988281 -79.566406 105.15625 -77.734375 C 105.320312 -75.910156 105.40625 -74.085938 105.40625 -72.265625 L 105.40625 -55.8125 C 105.40625 -51.164062 106.023438 -47.304688 107.265625 -44.234375 C 108.515625 -41.160156 111.296875 -37.960938 115.609375 -34.640625 C 116.941406 -33.640625 117.441406 -32.515625 117.109375 -31.265625 C 116.773438 -30.023438 115.945312 -29.40625 114.625 -29.40625 L 65.03125 -29.40625 C 62.375 -29.40625 61.003906 -30.148438 60.921875 -31.640625 C 60.835938 -33.140625 61.378906 -34.46875 62.546875 -35.625 C 65.703125 -38.457031 68.066406 -42.738281 69.640625 -48.46875 C 71.222656 -54.195312 72.097656 -60.46875 72.265625 -67.28125 C 72.429688 -74.09375 71.972656 -80.570312 70.890625 -86.71875 C 69.804688 -92.863281 68.144531 -97.925781 65.90625 -101.90625 C 63.664062 -105.894531 60.882812 -107.890625 57.5625 -107.890625 C 55.070312 -107.890625 52.785156 -105.601562 50.703125 -101.03125 C 48.628906 -96.46875 46.675781 -91.28125 44.84375 -85.46875 C 44.019531 -71.84375 44.394531 -60.796875 45.96875 -52.328125 C 47.550781 -43.859375 50.085938 -38.289062 53.578125 -35.625 C 54.898438 -34.632812 55.476562 -33.347656 55.3125 -31.765625 C 55.144531 -30.191406 53.734375 -29.40625 51.078125 -29.40625 L 2.484375 -29.40625 C 1.328125 -29.40625 0.582031 -30.023438 0.25 -31.265625 C -0.0820312 -32.515625 0.332031 -33.640625 1.5 -34.640625 C 5.8125 -37.960938 8.59375 -41.160156 9.84375 -44.234375 C 11.09375 -47.304688 11.71875 -51.164062 11.71875 -55.8125 L 11.71875 -76.75 C 11.71875 -81.394531 11.09375 -85.296875 9.84375 -88.453125 C 8.59375 -91.609375 5.8125 -94.847656 1.5 -98.171875 C 0.332031 -99.171875 -0.0820312 -100.25 0.25 -101.40625 C 0.582031 -102.570312 1.328125 -103.15625 2.484375 -103.15625 C 8.472656 -103.15625 13.664062 -103.984375 18.0625 -105.640625 C 22.46875 -107.304688 26.332031 -109.257812 29.65625 -111.5 C 32.976562 -113.75 35.925781 -115.828125 38.5 -117.734375 C 41.070312 -119.640625 43.519531 -120.84375 45.84375 -121.34375 C 48.5 -121.84375 49.617188 -121.34375 49.203125 -119.84375 C 48.796875 -118.351562 48.425781 -116.78125 48.09375 -115.125 L 47.09375 -107.390625 C 49.414062 -111.378906 52.113281 -114.742188 55.1875 -117.484375 C 58.257812 -120.222656 61.875 -121.59375 66.03125 -121.59375 C 73.832031 -121.59375 80.804688 -119.222656 86.953125 -114.484375 C 93.109375 -109.753906 97.765625 -103.488281 100.921875 -95.6875 C 102.410156 -99.832031 104.316406 -103.859375 106.640625 -107.765625 C 108.972656 -111.671875 111.878906 -114.953125 115.359375 -117.609375 C 118.847656 -120.265625 122.921875 -121.59375 127.578125 -121.59375 C 135.210938 -121.59375 141.976562 -119.390625 147.875 -114.984375 C 153.78125 -110.585938 158.429688 -104.648438 161.828125 -97.171875 C 165.234375 -89.703125 166.9375 -81.398438 166.9375 -72.265625 L 166.9375 -55.8125 C 166.9375 -51.164062 167.601562 -47.304688 168.9375 -44.234375 C 170.269531 -41.160156 173.007812 -37.960938 177.15625 -34.640625 Z M 177.15625 -34.640625 "/></g></g></g><g fill="#fff4e6" fill-opacity="1"><g transform="translate(467.570617, 197.113976)"><g><path d="M 51.078125 -29.40625 L 2.484375 -29.40625 C 1.328125 -29.40625 0.582031 -30.023438 0.25 -31.265625 C -0.0820312 -32.515625 0.332031 -33.640625 1.5 -34.640625 C 5.8125 -37.960938 8.59375 -41.160156 9.84375 -44.234375 C 11.09375 -47.304688 11.71875 -51.164062 11.71875 -55.8125 L 11.71875 -76.75 C 11.71875 -81.394531 11.09375 -85.296875 9.84375 -88.453125 C 8.59375 -91.609375 5.8125 -94.847656 1.5 -98.171875 C 0.332031 -99.171875 -0.0820312 -100.25 0.25 -101.40625 C 0.582031 -102.570312 1.328125 -103.15625 2.484375 -103.15625 C 8.472656 -103.15625 13.664062 -103.984375 18.0625 -105.640625 C 22.46875 -107.304688 26.332031 -109.257812 29.65625 -111.5 C 32.976562 -113.75 35.925781 -115.828125 38.5 -117.734375 C 41.070312 -119.640625 43.519531 -120.84375 45.84375 -121.34375 C 48.5 -121.84375 49.617188 -121.34375 49.203125 -119.84375 C 48.796875 -118.351562 48.425781 -116.78125 48.09375 -115.125 C 44.769531 -93.03125 43.6875 -75.128906 44.84375 -61.421875 C 46.007812 -47.710938 48.921875 -39.113281 53.578125 -35.625 C 54.898438 -34.632812 55.476562 -33.347656 55.3125 -31.765625 C 55.144531 -30.191406 53.734375 -29.40625 51.078125 -29.40625 Z M 18.6875 -119.859375 C 13.707031 -119.859375 9.800781 -121.640625 6.96875 -125.203125 C 4.144531 -128.773438 3.316406 -133.054688 4.484375 -138.046875 C 5.648438 -143.191406 8.390625 -147.507812 12.703125 -151 C 17.023438 -154.488281 21.757812 -156.234375 26.90625 -156.234375 C 31.894531 -156.234375 35.800781 -154.488281 38.625 -151 C 41.445312 -147.507812 42.273438 -143.191406 41.109375 -138.046875 C 39.953125 -133.054688 37.210938 -128.773438 32.890625 -125.203125 C 28.566406 -121.640625 23.832031 -119.859375 18.6875 -119.859375 Z M 18.6875 -119.859375 "/></g></g></g><g fill="#fff4e6" fill-opacity="1"><g transform="translate(524.129093, 197.113976)"><g><path d="M 121.09375 -34.640625 C 122.425781 -33.640625 122.925781 -32.515625 122.59375 -31.265625 C 122.257812 -30.023438 121.425781 -29.40625 120.09375 -29.40625 L 70.515625 -29.40625 C 67.859375 -29.40625 66.488281 -30.148438 66.40625 -31.640625 C 66.320312 -33.140625 66.863281 -34.46875 68.03125 -35.625 C 71.1875 -38.457031 73.46875 -42.820312 74.875 -48.71875 C 76.289062 -54.613281 76.957031 -61.046875 76.875 -68.015625 C 76.789062 -74.992188 76 -81.679688 74.5 -88.078125 C 73.007812 -94.472656 71.015625 -99.75 68.515625 -103.90625 C 66.023438 -108.0625 63.035156 -110.140625 59.546875 -110.140625 C 57.054688 -110.140625 54.609375 -108.519531 52.203125 -105.28125 C 49.796875 -102.039062 47.507812 -98.007812 45.34375 -93.1875 C 44.019531 -77.40625 44.144531 -64.570312 45.71875 -54.6875 C 47.300781 -44.8125 49.921875 -38.457031 53.578125 -35.625 C 54.898438 -34.632812 55.476562 -33.347656 55.3125 -31.765625 C 55.144531 -30.191406 53.734375 -29.40625 51.078125 -29.40625 L 2.484375 -29.40625 C 1.328125 -29.40625 0.582031 -30.023438 0.25 -31.265625 C -0.0820312 -32.515625 0.332031 -33.640625 1.5 -34.640625 C 5.8125 -37.960938 8.59375 -41.160156 9.84375 -44.234375 C 11.09375 -47.304688 11.71875 -51.164062 11.71875 -55.8125 L 11.71875 -76.75 C 11.71875 -81.394531 11.09375 -85.296875 9.84375 -88.453125 C 8.59375 -91.609375 5.8125 -94.847656 1.5 -98.171875 C 0.332031 -99.171875 -0.0820312 -100.25 0.25 -101.40625 C 0.582031 -102.570312 1.328125 -103.15625 2.484375 -103.15625 C 8.472656 -103.15625 13.664062 -103.984375 18.0625 -105.640625 C 22.46875 -107.304688 26.332031 -109.257812 29.65625 -111.5 C 32.976562 -113.75 35.925781 -115.828125 38.5 -117.734375 C 41.070312 -119.640625 43.519531 -120.84375 45.84375 -121.34375 C 48.5 -121.84375 49.617188 -121.34375 49.203125 -119.84375 C 48.796875 -118.351562 48.425781 -116.78125 48.09375 -115.125 L 47.34375 -109.890625 C 49.832031 -113.210938 52.695312 -115.992188 55.9375 -118.234375 C 59.175781 -120.472656 62.789062 -121.59375 66.78125 -121.59375 C 75.75 -121.59375 83.515625 -119.390625 90.078125 -114.984375 C 96.640625 -110.585938 101.742188 -104.648438 105.390625 -97.171875 C 109.046875 -89.703125 110.875 -81.398438 110.875 -72.265625 L 110.875 -55.8125 C 110.875 -51.164062 111.5 -47.304688 112.75 -44.234375 C 114 -41.160156 116.78125 -37.960938 121.09375 -34.640625 Z M 121.09375 -34.640625 "/></g></g></g><g clip-path="url(#874b251416)"><g fill="#fff4e6" fill-opacity="1"><g transform="translate(647.462046, 197.113976)"><g><path d="M 99.921875 -34.640625 C 101.242188 -33.640625 101.738281 -32.515625 101.40625 -31.265625 C 101.082031 -30.023438 100.253906 -29.40625 98.921875 -29.40625 L 73.5 -29.40625 C 69.019531 -29.40625 65.410156 -30.398438 62.671875 -32.390625 C 59.929688 -34.378906 57.9375 -36.367188 56.6875 -38.359375 C 55.4375 -40.359375 54.8125 -41.359375 54.8125 -41.359375 C 52.15625 -37.703125 48.664062 -34.796875 44.34375 -32.640625 C 40.03125 -30.484375 35.382812 -29.40625 30.40625 -29.40625 C 24.914062 -29.40625 19.84375 -30.734375 15.1875 -33.390625 C 10.539062 -36.046875 6.847656 -39.613281 4.109375 -44.09375 C 1.367188 -48.582031 0 -53.484375 0 -58.796875 C 0 -64.285156 1.367188 -69.226562 4.109375 -73.625 C 6.847656 -78.03125 10.539062 -81.5625 15.1875 -84.21875 C 19.84375 -86.875 24.914062 -88.203125 30.40625 -88.203125 C 35.382812 -88.203125 40.03125 -87.125 44.34375 -84.96875 C 48.664062 -82.8125 52.15625 -79.90625 54.8125 -76.25 L 54.8125 -83.71875 C 54.8125 -88.539062 54.226562 -93.316406 53.0625 -98.046875 C 51.90625 -102.785156 50.242188 -106.734375 48.078125 -109.890625 C 45.921875 -113.046875 43.347656 -114.625 40.359375 -114.625 C 38.535156 -114.625 37.582031 -113.375 37.5 -110.875 C 37.414062 -108.382812 38.125 -105.476562 39.625 -102.15625 C 40.613281 -99.664062 40.191406 -97.546875 38.359375 -95.796875 C 36.535156 -94.054688 33.960938 -92.726562 30.640625 -91.8125 C 27.328125 -90.90625 23.882812 -90.535156 20.3125 -90.703125 C 16.738281 -90.867188 13.703125 -91.65625 11.203125 -93.0625 C 8.710938 -94.476562 7.46875 -96.597656 7.46875 -99.421875 C 7.46875 -104.734375 10.5 -109.753906 16.5625 -114.484375 C 22.632812 -119.222656 31.398438 -121.59375 42.859375 -121.59375 C 51.828125 -121.59375 59.84375 -119.679688 66.90625 -115.859375 C 73.96875 -112.046875 79.53125 -106.734375 83.59375 -99.921875 C 87.664062 -93.109375 89.703125 -85.21875 89.703125 -76.25 L 89.703125 -55.8125 C 89.703125 -51.164062 90.320312 -47.304688 91.5625 -44.234375 C 92.8125 -41.160156 95.597656 -37.960938 99.921875 -34.640625 Z M 41.359375 -42.859375 C 44.847656 -42.859375 47.796875 -44.4375 50.203125 -47.59375 C 52.617188 -50.75 53.828125 -54.484375 53.828125 -58.796875 C 53.828125 -63.117188 52.617188 -66.859375 50.203125 -70.015625 C 47.796875 -73.171875 44.847656 -74.75 41.359375 -74.75 C 38.035156 -74.75 35.171875 -73.171875 32.765625 -70.015625 C 30.359375 -66.859375 29.15625 -63.117188 29.15625 -58.796875 C 29.15625 -54.484375 30.359375 -50.75 32.765625 -47.59375 C 35.171875 -44.4375 38.035156 -42.859375 41.359375 -42.859375 Z M 41.359375 -42.859375 "/></g></g></g></g></g></g></g><g clip-path="url(#6bafac6d45)"><path fill="#efc391" d="M 560.042969 0.628906 C 560.375 1.683594 559.800781 2.460938 559.46875 3.257812 C 555.933594 11.707031 551.539062 19.742188 547.511719 27.953125 C 540.746094 41.761719 533.75 55.441406 528.011719 69.746094 C 524.609375 78.222656 520.8125 86.554688 517.332031 95.015625 C 517.058594 95.675781 516.816406 96.992188 516.007812 96.621094 C 515.019531 96.167969 515.953125 95.152344 516.238281 94.453125 C 520.570312 83.917969 524.847656 73.359375 529.308594 62.878906 C 533.835938 52.234375 539.289062 42.027344 544.359375 31.636719 C 549.207031 21.699219 554.136719 11.804688 559.039062 1.894531 C 559.253906 1.457031 559.339844 0.917969 560.042969 0.628906 Z M 435.242188 1.566406 C 436.066406 4.359375 436.875 7.160156 438 9.859375 C 441.980469 19.378906 446.394531 28.753906 449.601562 38.550781 C 456.046875 58.234375 464.382812 77.195312 471.285156 96.699219 C 471.496094 97.292969 471.542969 98.492188 472.519531 98.128906 C 473.375 97.808594 472.601562 96.945312 472.429688 96.375 C 470.835938 91.050781 468.753906 85.898438 466.714844 80.738281 C 456.332031 54.457031 446.660156 27.902344 436.386719 1.578125 C 436.179688 1.042969 436.097656 0.347656 435.242188 0.160156 C 434.96875 0.707031 435.117188 1.132812 435.242188 1.566406 Z M 553.246094 127.335938 C 561.355469 123.625 569.445312 119.875 577.53125 116.125 C 589.949219 110.367188 602.234375 104.324219 614.71875 98.714844 C 624.335938 94.390625 634.128906 90.445312 643.363281 85.304688 C 644.039062 84.929688 644.921875 84.769531 645.441406 83.480469 C 613.128906 97.863281 581.707031 113.210938 549.992188 127.957031 C 551.242188 128.328125 552.257812 127.785156 553.246094 127.335938 Z M 560.046875 150.214844 C 571.167969 149.871094 582.285156 150.570312 593.410156 150.167969 C 601.378906 149.882812 609.355469 150.410156 617.328125 150.554688 C 627.273438 150.730469 637.203125 150.152344 647.132812 149.777344 C 651.175781 149.625 655.21875 149.503906 659.261719 149.363281 C 659.699219 149.347656 660.335938 149.347656 660.316406 148.800781 C 660.296875 148.140625 659.621094 148.40625 659.234375 148.417969 C 656.933594 148.492188 654.632812 148.613281 652.332031 148.703125 C 632.851562 149.460938 613.359375 148.808594 593.875 149.433594 C 581.804688 149.820312 569.730469 148.660156 557.652344 149.21875 C 556.960938 149.253906 556.207031 149.039062 555.523438 149.808594 C 557.078125 150.289062 558.574219 150.257812 560.046875 150.214844 Z M 433.144531 148.828125 C 430.84375 148.753906 428.539062 148.734375 426.238281 148.675781 C 416.6875 148.441406 407.167969 149.535156 397.625 149.402344 C 388.8125 149.28125 380.003906 148.929688 371.191406 148.804688 C 358.113281 148.625 345.03125 148.894531 331.953125 149.082031 C 331.425781 149.089844 330.589844 148.882812 330.5625 149.621094 C 330.527344 150.496094 331.398438 150.132812 331.871094 150.132812 C 338.160156 150.175781 344.449219 150.253906 350.738281 150.191406 C 373.363281 149.972656 395.988281 150.3125 418.609375 149.796875 C 423.269531 149.691406 427.933594 149.789062 432.59375 149.757812 C 433.28125 149.75 434.066406 149.976562 434.652344 149.316406 C 434.277344 148.714844 433.664062 148.84375 433.144531 148.828125 Z M 348.9375 84.351562 C 360.128906 89.578125 371.320312 94.773438 382.0625 100.910156 C 396.746094 109.296875 412.375 115.84375 427.25 123.875 C 431.144531 125.980469 435.261719 127.664062 439.292969 129.515625 C 439.621094 129.667969 440.128906 130.210938 440.402344 129.527344 C 440.589844 129.066406 440.027344 128.917969 439.695312 128.742188 C 438.605469 128.160156 437.519531 127.570312 436.414062 127.023438 C 427.046875 122.40625 417.621094 117.914062 408.320312 113.167969 C 388.320312 102.957031 368.300781 92.785156 348.171875 82.832031 C 347.695312 82.597656 347.246094 82.136719 346.433594 82.574219 C 347.078125 83.589844 348.050781 83.9375 348.9375 84.351562 Z M 495.84375 21.460938 C 495.746094 28.816406 495.609375 36.171875 495.546875 43.527344 C 495.410156 59.816406 495.183594 76.101562 495.464844 92.390625 C 495.480469 93.109375 495.203125 94.300781 496.261719 94.265625 C 497.207031 94.234375 496.792969 93.082031 496.816406 92.425781 C 497.242188 80.464844 496.320312 68.515625 496.707031 56.542969 C 497.066406 45.265625 496.800781 33.964844 496.792969 22.671875 C 496.792969 21.976562 497 21.203125 496.308594 20.53125 C 495.863281 20.789062 495.847656 21.117188 495.84375 21.460938 Z M 589.183594 57.757812 C 588.792969 57.953125 588.4375 58.242188 588.117188 58.542969 C 583.6875 62.761719 579.304688 67.03125 574.828125 71.203125 C 569.613281 76.0625 564.253906 80.765625 559.078125 85.667969 C 551.75 92.617188 544.648438 99.800781 537.675781 107.109375 C 537.214844 107.597656 536.769531 108.109375 536.351562 108.632812 C 536.140625 108.894531 535.976562 109.257812 536.253906 109.542969 C 536.617188 109.917969 536.976562 109.679688 537.269531 109.386719 C 538.0625 108.597656 538.839844 107.785156 539.636719 106.996094 C 543.859375 102.804688 548.292969 98.804688 552.261719 94.390625 C 557.949219 88.070312 564.003906 82.167969 570.464844 76.667969 C 576.753906 71.3125 582.550781 65.433594 588.484375 59.703125 C 588.960938 59.238281 589.371094 58.707031 589.753906 58.277344 C 589.726562 57.765625 589.445312 57.625 589.183594 57.757812 Z M 403.589844 56.199219 C 403.890625 57.089844 404.609375 57.660156 405.242188 58.28125 C 418.875 71.726562 431.777344 85.890625 445.398438 99.351562 C 448.4375 102.351562 451.316406 105.5 454.183594 108.660156 C 454.5 109.011719 454.914062 109.5625 455.441406 109.085938 C 455.96875 108.605469 455.460938 108.175781 455.128906 107.8125 C 453.917969 106.484375 452.71875 105.144531 451.476562 103.847656 C 443.402344 95.402344 434.941406 87.347656 426.777344 78.996094 C 420.339844 72.414062 414.28125 65.464844 407.546875 59.171875 C 406.347656 58.050781 405.132812 56.945312 403.925781 55.832031 C 403.8125 55.957031 403.699219 56.078125 403.589844 56.199219 Z M 463.957031 102.246094 C 463.816406 100.941406 463.007812 99.917969 462.324219 98.867188 C 456.761719 90.296875 451.28125 81.671875 445.429688 73.292969 C 444.207031 71.546875 443.007812 69.78125 441.777344 68.039062 C 441.5625 67.742188 441.257812 67.328125 440.820312 67.660156 C 440.46875 67.929688 440.773438 68.273438 440.917969 68.558594 C 441.042969 68.808594 441.207031 69.042969 441.363281 69.273438 C 447.480469 78.277344 453.929688 87.066406 459.355469 96.535156 C 460.558594 98.636719 462.125 100.53125 463.523438 102.523438 C 463.667969 102.429688 463.8125 102.335938 463.957031 102.246094 Z M 485.351562 94.335938 C 485.347656 92.574219 484.660156 90.941406 484.339844 89.238281 C 482.195312 77.953125 480.082031 66.664062 477.933594 55.378906 C 477.785156 54.605469 477.804688 53.164062 476.996094 53.335938 C 476 53.542969 476.5625 54.847656 476.730469 55.65625 C 478.867188 65.96875 481.425781 76.199219 482.71875 86.679688 C 483.074219 89.550781 483.910156 92.339844 484.773438 95.183594 C 485.40625 94.902344 485.355469 94.597656 485.351562 94.335938 Z M 446.3125 115.839844 C 444.617188 114.265625 442.683594 113.007812 440.792969 111.699219 C 434.511719 107.359375 428.222656 103.03125 422.207031 98.324219 C 420.308594 96.835938 418.296875 95.496094 416.308594 94.128906 C 415.925781 93.863281 415.332031 93.496094 414.996094 94.101562 C 414.730469 94.585938 415.300781 94.886719 415.648438 95.136719 C 416.78125 95.960938 417.929688 96.769531 419.09375 97.550781 C 421.09375 98.902344 423.148438 100.171875 425.113281 101.570312 C 431.976562 106.453125 438.433594 111.882812 445.460938 116.53125 C 446.023438 116.902344 446.472656 117.65625 447.394531 117.289062 C 447.285156 116.589844 446.746094 116.242188 446.3125 115.839844 Z M 436.273438 138.410156 C 436.03125 138.285156 435.796875 138.089844 435.542969 138.042969 C 430.292969 137.15625 425.238281 135.421875 420.015625 134.417969 C 413.742188 133.210938 407.714844 131.023438 401.464844 129.71875 C 400.355469 129.484375 399.183594 128.921875 397.90625 129.515625 C 398.496094 130.347656 399.308594 130.398438 400.046875 130.585938 C 405.035156 131.859375 410.050781 133.003906 415.082031 134.113281 C 420.214844 135.242188 425.246094 136.816406 430.347656 138.097656 C 432.253906 138.574219 434.210938 138.996094 436.195312 138.828125 C 436.222656 138.6875 436.246094 138.546875 436.273438 138.410156 Z M 546.082031 118.4375 C 547.636719 117.332031 549.15625 116.179688 550.703125 115.070312 C 558.125 109.746094 565.558594 104.4375 572.972656 99.101562 C 573.835938 98.480469 574.605469 97.734375 575.394531 97.019531 C 575.65625 96.777344 576.113281 96.480469 575.714844 96.058594 C 575.425781 95.757812 575.078125 96.070312 574.820312 96.25 C 573.527344 97.140625 572.257812 98.0625 570.964844 98.953125 C 566.570312 101.972656 562.769531 105.769531 558.230469 108.589844 C 553.984375 111.226562 549.917969 114.113281 545.988281 117.195312 C 545.382812 117.667969 544.65625 118.054688 544.457031 118.996094 C 545.265625 119.25 545.652344 118.742188 546.082031 118.4375 Z M 530.210938 98.796875 C 534.398438 92.023438 538.617188 85.273438 543.375 78.878906 C 545.183594 76.445312 546.789062 73.878906 548.289062 71.246094 C 548.558594 70.773438 549.039062 70.078125 548.496094 69.738281 C 547.886719 69.359375 547.574219 70.167969 547.304688 70.609375 C 541.523438 80.222656 534.957031 89.324219 528.921875 98.769531 C 528.191406 99.917969 527.296875 100.996094 527.058594 102.425781 C 528.554688 101.558594 529.371094 100.15625 530.210938 98.796875 Z M 506.765625 94.632812 C 506.917969 94.050781 507.105469 93.476562 507.21875 92.886719 C 509.398438 81.671875 511.363281 70.414062 513.980469 59.285156 C 514.246094 58.144531 514.417969 56.972656 514.589844 55.808594 C 514.652344 55.378906 514.6875 54.789062 514.105469 54.722656 C 513.527344 54.652344 513.492188 55.265625 513.351562 55.671875 C 513.28125 55.878906 513.289062 56.113281 513.253906 56.335938 C 511.71875 66.644531 509.40625 76.804688 507.367188 87.019531 C 506.875 89.5 506.378906 92.019531 506.324219 94.570312 C 506.472656 94.59375 506.617188 94.613281 506.765625 94.632812 Z M 591.167969 130.820312 C 578.945312 133.386719 566.707031 135.902344 554.660156 139.25 C 557.167969 139.628906 590.398438 131.921875 591.167969 130.820312 Z M 393.671875 128.71875 C 393.835938 128.738281 394.113281 128.554688 394.183594 128.398438 C 394.328125 128.070312 394.050781 127.878906 393.78125 127.804688 C 391.835938 127.261719 389.933594 126.5 387.824219 126.742188 C 389.636719 127.828125 391.585938 128.484375 393.671875 128.71875 Z M 435.378906 59.542969 C 435.238281 59.503906 434.960938 59.527344 434.941406 59.582031 C 434.878906 59.773438 434.828125 60.035156 434.914062 60.195312 C 435.679688 61.636719 436.625 62.960938 437.691406 64.195312 C 437.890625 64.421875 438.15625 64.539062 438.4375 64.394531 C 438.550781 64.335938 438.589844 64.132812 438.621094 64.070312 C 438.625 63.410156 435.917969 59.683594 435.378906 59.542969 Z M 579.355469 92.6875 C 579.085938 92.902344 578.910156 93.261719 579.125 93.574219 C 579.371094 93.933594 579.738281 93.730469 580.015625 93.5625 C 581.441406 92.6875 582.710938 91.640625 583.609375 90.167969 C 581.972656 90.695312 580.644531 91.660156 579.355469 92.6875 Z M 475.757812 48.660156 C 475.832031 48.96875 475.9375 49.355469 476.378906 49.296875 C 476.703125 49.257812 476.839844 48.976562 476.773438 48.675781 C 476.359375 46.882812 476.289062 44.972656 475.023438 43.429688 C 474.871094 45.242188 475.347656 46.945312 475.757812 48.660156 Z M 516.253906 45.621094 C 516.28125 45.457031 516.113281 45.164062 515.957031 45.09375 C 515.621094 44.9375 515.449219 45.242188 515.382812 45.5 C 514.976562 47.136719 514.375 48.761719 514.96875 50.515625 C 516.074219 49.046875 516.015625 47.292969 516.253906 45.621094 Z M 554.289062 61.082031 C 553.015625 62.734375 551.335938 64.121094 550.925781 66.335938 C 552.359375 64.78125 553.835938 63.253906 554.289062 61.082031 Z M 405.304688 87.679688 C 406.457031 89.308594 408.109375 90.246094 409.96875 90.917969 C 408.757812 89.367188 407.308594 88.121094 405.304688 87.679688 Z M 595.382812 130.046875 C 597.214844 129.734375 599.171875 129.839844 600.65625 128.414062 C 598.808594 128.699219 596.828125 128.550781 595.382812 130.046875 Z M 595.382812 130.046875 " fill-opacity="1" fill-rule="nonzero"/><path fill="#efc391" d="M 560.042969 0.628906 C 560.375 1.683594 559.800781 2.460938 559.46875 3.257812 C 555.933594 11.707031 551.539062 19.742188 547.511719 27.953125 C 540.746094 41.761719 533.75 55.441406 528.011719 69.746094 C 524.609375 78.222656 520.8125 86.554688 517.332031 95.015625 C 517.058594 95.675781 516.816406 96.992188 516.007812 96.621094 C 515.019531 96.167969 515.953125 95.152344 516.238281 94.453125 C 520.570312 83.917969 524.847656 73.359375 529.308594 62.878906 C 533.835938 52.234375 539.289062 42.027344 544.359375 31.636719 C 549.207031 21.699219 554.136719 11.804688 559.039062 1.894531 C 559.253906 1.457031 559.339844 0.917969 560.042969 0.628906 Z M 435.242188 1.566406 C 436.066406 4.359375 436.875 7.160156 438 9.859375 C 441.980469 19.378906 446.394531 28.753906 449.601562 38.550781 C 456.046875 58.234375 464.382812 77.195312 471.285156 96.699219 C 471.496094 97.292969 471.542969 98.492188 472.519531 98.128906 C 473.375 97.808594 472.601562 96.945312 472.429688 96.375 C 470.835938 91.050781 468.753906 85.898438 466.714844 80.738281 C 456.332031 54.457031 446.660156 27.902344 436.386719 1.578125 C 436.179688 1.042969 436.097656 0.347656 435.242188 0.160156 C 434.96875 0.707031 435.117188 1.132812 435.242188 1.566406 Z M 553.246094 127.335938 C 561.355469 123.625 569.445312 119.875 577.53125 116.125 C 589.949219 110.367188 602.234375 104.324219 614.71875 98.714844 C 624.335938 94.390625 634.128906 90.445312 643.363281 85.304688 C 644.039062 84.929688 644.921875 84.769531 645.441406 83.480469 C 613.128906 97.863281 581.707031 113.210938 549.992188 127.957031 C 551.242188 128.328125 552.257812 127.785156 553.246094 127.335938 Z M 560.046875 150.214844 C 571.167969 149.871094 582.285156 150.570312 593.410156 150.167969 C 601.378906 149.882812 609.355469 150.410156 617.328125 150.554688 C 627.273438 150.730469 637.203125 150.152344 647.132812 149.777344 C 651.175781 149.625 655.21875 149.503906 659.261719 149.363281 C 659.699219 149.347656 660.335938 149.347656 660.316406 148.800781 C 660.296875 148.140625 659.621094 148.40625 659.234375 148.417969 C 656.933594 148.492188 654.632812 148.613281 652.332031 148.703125 C 632.851562 149.460938 613.359375 148.808594 593.875 149.433594 C 581.804688 149.820312 569.730469 148.660156 557.652344 149.21875 C 556.960938 149.253906 556.207031 149.039062 555.523438 149.808594 C 557.078125 150.289062 558.574219 150.257812 560.046875 150.214844 Z M 433.144531 148.828125 C 430.84375 148.753906 428.539062 148.734375 426.238281 148.675781 C 416.6875 148.441406 407.167969 149.535156 397.625 149.402344 C 388.8125 149.28125 380.003906 148.929688 371.191406 148.804688 C 358.113281 148.625 345.03125 148.894531 331.953125 149.082031 C 331.425781 149.089844 330.589844 148.882812 330.5625 149.621094 C 330.527344 150.496094 331.398438 150.132812 331.871094 150.132812 C 338.160156 150.175781 344.449219 150.253906 350.738281 150.191406 C 373.363281 149.972656 395.988281 150.3125 418.609375 149.796875 C 423.269531 149.691406 427.933594 149.789062 432.59375 149.757812 C 433.28125 149.75 434.066406 149.976562 434.652344 149.316406 C 434.277344 148.714844 433.664062 148.84375 433.144531 148.828125 Z M 348.9375 84.351562 C 360.128906 89.578125 371.320312 94.773438 382.0625 100.910156 C 396.746094 109.296875 412.375 115.84375 427.25 123.875 C 431.144531 125.980469 435.261719 127.664062 439.292969 129.515625 C 439.621094 129.667969 440.128906 130.210938 440.402344 129.527344 C 440.589844 129.066406 440.027344 128.917969 439.695312 128.742188 C 438.605469 128.160156 437.519531 127.570312 436.414062 127.023438 C 427.046875 122.40625 417.621094 117.914062 408.320312 113.167969 C 388.320312 102.957031 368.300781 92.785156 348.171875 82.832031 C 347.695312 82.597656 347.246094 82.136719 346.433594 82.574219 C 347.078125 83.589844 348.050781 83.9375 348.9375 84.351562 Z M 495.84375 21.460938 C 495.746094 28.816406 495.609375 36.171875 495.546875 43.527344 C 495.410156 59.816406 495.183594 76.101562 495.464844 92.390625 C 495.480469 93.109375 495.203125 94.300781 496.261719 94.265625 C 497.207031 94.234375 496.792969 93.082031 496.816406 92.425781 C 497.242188 80.464844 496.320312 68.515625 496.707031 56.542969 C 497.066406 45.265625 496.800781 33.964844 496.792969 22.671875 C 496.792969 21.976562 497 21.203125 496.308594 20.53125 C 495.863281 20.789062 495.847656 21.117188 495.84375 21.460938 Z M 589.183594 57.757812 C 588.792969 57.953125 588.4375 58.242188 588.117188 58.542969 C 583.6875 62.761719 579.304688 67.03125 574.828125 71.203125 C 569.613281 76.0625 564.253906 80.765625 559.078125 85.667969 C 551.75 92.617188 544.648438 99.800781 537.675781 107.109375 C 537.214844 107.597656 536.769531 108.109375 536.351562 108.632812 C 536.140625 108.894531 535.976562 109.257812 536.253906 109.542969 C 536.617188 109.917969 536.976562 109.679688 537.269531 109.386719 C 538.0625 108.597656 538.839844 107.785156 539.636719 106.996094 C 543.859375 102.804688 548.292969 98.804688 552.261719 94.390625 C 557.949219 88.070312 564.003906 82.167969 570.464844 76.667969 C 576.753906 71.3125 582.550781 65.433594 588.484375 59.703125 C 588.960938 59.238281 589.371094 58.707031 589.753906 58.277344 C 589.726562 57.765625 589.445312 57.625 589.183594 57.757812 Z M 403.589844 56.199219 C 403.890625 57.089844 404.609375 57.660156 405.242188 58.28125 C 418.875 71.726562 431.777344 85.890625 445.398438 99.351562 C 448.4375 102.351562 451.316406 105.5 454.183594 108.660156 C 454.5 109.011719 454.914062 109.5625 455.441406 109.085938 C 455.96875 108.605469 455.460938 108.175781 455.128906 107.8125 C 453.917969 106.484375 452.71875 105.144531 451.476562 103.847656 C 443.402344 95.402344 434.941406 87.347656 426.777344 78.996094 C 420.339844 72.414062 414.28125 65.464844 407.546875 59.171875 C 406.347656 58.050781 405.132812 56.945312 403.925781 55.832031 C 403.8125 55.957031 403.699219 56.078125 403.589844 56.199219 Z M 463.957031 102.246094 C 463.816406 100.941406 463.007812 99.917969 462.324219 98.867188 C 456.761719 90.296875 451.28125 81.671875 445.429688 73.292969 C 444.207031 71.546875 443.007812 69.78125 441.777344 68.039062 C 441.5625 67.742188 441.257812 67.328125 440.820312 67.660156 C 440.46875 67.929688 440.773438 68.273438 440.917969 68.558594 C 441.042969 68.808594 441.207031 69.042969 441.363281 69.273438 C 447.480469 78.277344 453.929688 87.066406 459.355469 96.535156 C 460.558594 98.636719 462.125 100.53125 463.523438 102.523438 C 463.667969 102.429688 463.8125 102.335938 463.957031 102.246094 Z M 485.351562 94.335938 C 485.347656 92.574219 484.660156 90.941406 484.339844 89.238281 C 482.195312 77.953125 480.082031 66.664062 477.933594 55.378906 C 477.785156 54.605469 477.804688 53.164062 476.996094 53.335938 C 476 53.542969 476.5625 54.847656 476.730469 55.65625 C 478.867188 65.96875 481.425781 76.199219 482.71875 86.679688 C 483.074219 89.550781 483.910156 92.339844 484.773438 95.183594 C 485.40625 94.902344 485.355469 94.597656 485.351562 94.335938 Z M 446.3125 115.839844 C 444.617188 114.265625 442.683594 113.007812 440.792969 111.699219 C 434.511719 107.359375 428.222656 103.03125 422.207031 98.324219 C 420.308594 96.835938 418.296875 95.496094 416.308594 94.128906 C 415.925781 93.863281 415.332031 93.496094 414.996094 94.101562 C 414.730469 94.585938 415.300781 94.886719 415.648438 95.136719 C 416.78125 95.960938 417.929688 96.769531 419.09375 97.550781 C 421.09375 98.902344 423.148438 100.171875 425.113281 101.570312 C 431.976562 106.453125 438.433594 111.882812 445.460938 116.53125 C 446.023438 116.902344 446.472656 117.65625 447.394531 117.289062 C 447.285156 116.589844 446.746094 116.242188 446.3125 115.839844 Z M 436.273438 138.410156 C 436.03125 138.285156 435.796875 138.089844 435.542969 138.042969 C 430.292969 137.15625 425.238281 135.421875 420.015625 134.417969 C 413.742188 133.210938 407.714844 131.023438 401.464844 129.71875 C 400.355469 129.484375 399.183594 128.921875 397.90625 129.515625 C 398.496094 130.347656 399.308594 130.398438 400.046875 130.585938 C 405.035156 131.859375 410.050781 133.003906 415.082031 134.113281 C 420.214844 135.242188 425.246094 136.816406 430.347656 138.097656 C 432.253906 138.574219 434.210938 138.996094 436.195312 138.828125 C 436.222656 138.6875 436.246094 138.546875 436.273438 138.410156 Z M 546.082031 118.4375 C 547.636719 117.332031 549.15625 116.179688 550.703125 115.070312 C 558.125 109.746094 565.558594 104.4375 572.972656 99.101562 C 573.835938 98.480469 574.605469 97.734375 575.394531 97.019531 C 575.65625 96.777344 576.113281 96.480469 575.714844 96.058594 C 575.425781 95.757812 575.078125 96.070312 574.820312 96.25 C 573.527344 97.140625 572.257812 98.0625 570.964844 98.953125 C 566.570312 101.972656 562.769531 105.769531 558.230469 108.589844 C 553.984375 111.226562 549.917969 114.113281 545.988281 117.195312 C 545.382812 117.667969 544.65625 118.054688 544.457031 118.996094 C 545.265625 119.25 545.652344 118.742188 546.082031 118.4375 Z M 530.210938 98.796875 C 534.398438 92.023438 538.617188 85.273438 543.375 78.878906 C 545.183594 76.445312 546.789062 73.878906 548.289062 71.246094 C 548.558594 70.773438 549.039062 70.078125 548.496094 69.738281 C 547.886719 69.359375 547.574219 70.167969 547.304688 70.609375 C 541.523438 80.222656 534.957031 89.324219 528.921875 98.769531 C 528.191406 99.917969 527.296875 100.996094 527.058594 102.425781 C 528.554688 101.558594 529.371094 100.15625 530.210938 98.796875 Z M 506.765625 94.632812 C 506.917969 94.050781 507.105469 93.476562 507.21875 92.886719 C 509.398438 81.671875 511.363281 70.414062 513.980469 59.285156 C 514.246094 58.144531 514.417969 56.972656 514.589844 55.808594 C 514.652344 55.378906 514.6875 54.789062 514.105469 54.722656 C 513.527344 54.652344 513.492188 55.265625 513.351562 55.671875 C 513.28125 55.878906 513.289062 56.113281 513.253906 56.335938 C 511.71875 66.644531 509.40625 76.804688 507.367188 87.019531 C 506.875 89.5 506.378906 92.019531 506.324219 94.570312 C 506.472656 94.59375 506.617188 94.613281 506.765625 94.632812 Z M 591.167969 130.820312 C 578.945312 133.386719 566.707031 135.902344 554.660156 139.25 C 557.167969 139.628906 590.398438 131.921875 591.167969 130.820312 Z M 393.671875 128.71875 C 393.835938 128.738281 394.113281 128.554688 394.183594 128.398438 C 394.328125 128.070312 394.050781 127.878906 393.78125 127.804688 C 391.835938 127.261719 389.933594 126.5 387.824219 126.742188 C 389.636719 127.828125 391.585938 128.484375 393.671875 128.71875 Z M 435.378906 59.542969 C 435.238281 59.503906 434.960938 59.527344 434.941406 59.582031 C 434.878906 59.773438 434.828125 60.035156 434.914062 60.195312 C 435.679688 61.636719 436.625 62.960938 437.691406 64.195312 C 437.890625 64.421875 438.15625 64.539062 438.4375 64.394531 C 438.550781 64.335938 438.589844 64.132812 438.621094 64.070312 C 438.625 63.410156 435.917969 59.683594 435.378906 59.542969 Z M 579.355469 92.6875 C 579.085938 92.902344 578.910156 93.261719 579.125 93.574219 C 579.371094 93.933594 579.738281 93.730469 580.015625 93.5625 C 581.441406 92.6875 582.710938 91.640625 583.609375 90.167969 C 581.972656 90.695312 580.644531 91.660156 579.355469 92.6875 Z M 475.757812 48.660156 C 475.832031 48.96875 475.9375 49.355469 476.378906 49.296875 C 476.703125 49.257812 476.839844 48.976562 476.773438 48.675781 C 476.359375 46.882812 476.289062 44.972656 475.023438 43.429688 C 474.871094 45.242188 475.347656 46.945312 475.757812 48.660156 Z M 516.253906 45.621094 C 516.28125 45.457031 516.113281 45.164062 515.957031 45.09375 C 515.621094 44.9375 515.449219 45.242188 515.382812 45.5 C 514.976562 47.136719 514.375 48.761719 514.96875 50.515625 C 516.074219 49.046875 516.015625 47.292969 516.253906 45.621094 Z M 554.289062 61.082031 C 553.015625 62.734375 551.335938 64.121094 550.925781 66.335938 C 552.359375 64.78125 553.835938 63.253906 554.289062 61.082031 Z M 405.304688 87.679688 C 406.457031 89.308594 408.109375 90.246094 409.96875 90.917969 C 408.757812 89.367188 407.308594 88.121094 405.304688 87.679688 Z M 595.382812 130.046875 C 597.214844 129.734375 599.171875 129.839844 600.65625 128.414062 C 598.808594 128.699219 596.828125 128.550781 595.382812 130.046875 Z M 595.382812 130.046875 " fill-opacity="1" fill-rule="nonzero"/></g></g></g></g></svg>